<svg width="13" height="18" viewBox="0 0 13 18" fill="none" xmlns="http://www.w3.org/2000/svg">
<path d="M0.301765 10.4361H6.41847L3.1759 17.522C3.02384 17.8543 3.41265 18.1642 3.65204 17.9016L12.7558 7.91677C12.8432 7.82427 12.8702 7.6902 12.8256 7.57121C12.7808 7.45221 12.6723 7.36892 12.5457 7.35692H6.38583L11.3154 0.531661C11.3888 0.435819 11.4043 0.307614 11.3559 0.196983C11.3073 0.0863524 11.2025 0.010882 11.0823 0H5.72736C5.62036 0.00195312 5.52298 0.0620812 5.47318 0.156944L0.0475407 9.93752C-0.0114692 10.035 -0.0157941 10.156 0.0359616 10.2576C0.087718 10.359 0.188163 10.4265 0.301722 10.4361L0.301765 10.4361Z" fill="#FFD747"/>
</svg>
