<svg width="101" height="100" viewBox="0 0 101 100" fill="none" xmlns="http://www.w3.org/2000/svg">
<path fill-rule="evenodd" clip-rule="evenodd" d="M71.0405 50.8467C71.0405 56.5008 68.7994 61.6418 65.1676 65.4128C62.9492 67.7162 62.0405 69.4802 62.0405 70.8642V76.8467C62.0405 80.7127 58.9065 83.8467 55.0405 83.8467H45.0405C41.1745 83.8467 38.0405 80.7127 38.0405 76.8467V70.8642C38.0405 69.4802 37.1318 67.7162 34.9134 65.4128C31.2816 61.6418 29.0405 56.5008 29.0405 50.8467C29.0405 39.2487 38.4425 29.8467 50.0405 29.8467C61.6385 29.8467 71.0405 39.2487 71.0405 50.8467ZM61.5663 61.9443C59.1785 64.4236 57.0405 67.4221 57.0405 70.8642V76.8467C57.0405 77.9512 56.1451 78.8467 55.0405 78.8467H45.0405C43.936 78.8467 43.0405 77.9512 43.0405 76.8467V70.8642C43.0405 67.4221 40.9025 64.4236 38.5148 61.9443C35.7442 59.0676 34.0405 55.1561 34.0405 50.8467C34.0405 42.0101 41.204 34.8467 50.0405 34.8467C58.8771 34.8467 66.0405 42.0101 66.0405 50.8467C66.0405 55.1561 64.3368 59.0676 61.5663 61.9443Z" fill="#4DDBB0"/>
<path fill-rule="evenodd" clip-rule="evenodd" d="M50 54C51.6569 54 53 52.6569 53 51C53 49.3431 51.6569 48 50 48C48.3431 48 47 49.3431 47 51C47 52.6569 48.3431 54 50 54ZM50 59C54.4183 59 58 55.4183 58 51C58 46.5817 54.4183 43 50 43C45.5817 43 42 46.5817 42 51C42 55.4183 45.5817 59 50 59Z" fill="#4DDBB0"/>
<rect x="7.5" y="52.5" width="3" height="11" rx="1.5" transform="rotate(-90 7.5 52.5)" stroke="#4DDBB0" stroke-width="3"/>
<rect x="48.5" y="8.5" width="3" height="11" rx="1.5" stroke="#4DDBB0" stroke-width="3"/>
<rect x="18.8872" y="22.0086" width="3" height="11" rx="1.5" transform="rotate(-45 18.8872 22.0086)" stroke="#4DDBB0" stroke-width="3"/>
<rect x="92.5" y="49.5" width="3" height="11" rx="1.5" transform="rotate(90 92.5 49.5)" stroke="#4DDBB0" stroke-width="3"/>
<rect x="78.9915" y="19.8873" width="3" height="11" rx="1.5" transform="rotate(45 78.9915 19.8873)" stroke="#4DDBB0" stroke-width="3"/>
<rect x="37.0405" y="88.8467" width="26" height="5" rx="2.5" fill="#4DDBB0"/>
</svg>
