<svg width="447" height="269" viewBox="0 0 447 269" fill="none" xmlns="http://www.w3.org/2000/svg">
<g clip-path="url(#clip0_365:21057)">
<rect width="447" height="269" rx="10" fill="#00614A"/>
<path d="M467.624 396.731L472.791 375.341C472.996 374.392 472.923 373.465 472.711 372.549L454.116 313.699L471.248 288.105L470.799 282.389L452.804 309.45L437.909 262.122C446.629 266.411 460.337 270.153 470.173 272.645L469.87 268.783C456.036 265.206 442.709 260.968 436.422 257.42L419.876 205.093C434.081 199.158 449.372 192.828 463.451 187.059L463.293 185.05C461.258 185.832 459.363 186.603 457.34 187.539L444.671 134.751C446.047 134.488 447.436 134.379 448.813 134.115L459.452 134.368L459.306 132.514L459.167 132.525L459.306 132.514L459.015 128.806C437.346 132.218 415.261 135.663 406.422 136.979L396.651 85.518C396.493 83.5097 395.099 69.3187 393.915 52.4686L430.021 49.6326C430.16 49.6217 430.16 49.6217 430.298 49.6108L451.675 38.9161L451.517 36.9078L429.736 47.7896L393.631 50.6257C392.362 32.6942 391.05 12.4345 391.287 1.22414C391.654 -19.012 398.687 -68.2174 400.452 -79.5477L440.741 -100.277L439.965 -110.164L398.335 -88.7079L388.771 -105.521C388.119 -106.714 387.086 -107.41 385.812 -107.621L348.525 -114.485C347.39 -114.706 346.291 -114.465 345.38 -113.616L322.944 -95.0659L260.187 -93.5561L219.617 -143.996C218.39 -147.164 213.622 -159.847 206.423 -178.556L197.536 -177.858C202.443 -165.186 206.312 -155.076 208.79 -148.431C208.543 -146.235 208.182 -143.72 207.845 -140.896L190.087 -141.055L183.625 -177.076L181.958 -176.945L188.523 -141.399L159.016 -141.723L152.38 -174.622L150.713 -174.491L157.223 -141.427L140.983 -134.711C140.845 -134.7 140.718 -134.535 140.718 -134.535L124.392 -116.465L97.1459 -125.361L98.3444 -133.227C98.3202 -133.536 98.308 -133.691 98.1449 -133.989C97.9939 -134.132 97.8429 -134.276 97.553 -134.408L62.549 -140.675L62.4102 -140.664L27.6934 -137.937L14.8892 -147.967L36.8423 -165.547L33.6483 -165.296L18.2868 -152.742L17.6786 -164.041L16.0122 -163.91L16.5664 -151.519L12.8844 -148.587L2.12833 -139.659L-9.05929 -154.014L-1.28545 -161.774C-1.01985 -161.951 -1.04415 -162.26 -1.06842 -162.569L-3.15142 -162.405L-10.1406 -155.328L-14.9551 -161.478L-17.0381 -161.314L1.28977 -137.883L3.18945 -127.929L-13.0444 -106.913L-33.896 -82.4253L-46.7489 -141.105L-29.8139 -160.311L-32.3135 -160.114L-47.1965 -143.246L-48.9263 -151.038L-48.9384 -151.192L-52.3104 -158.544L-54.1156 -158.402L-50.5563 -150.443L-39.6206 -100.162L-53.3536 -91.7778C-53.4925 -91.7668 -53.4803 -91.6124 -53.607 -91.447L-67.6069 -70.4509L-90.6857 -44.0784L-90.3823 -40.2163L-78.2846 -30.2857L-88.8897 -21.2143L-88.7199 -19.0515L-76.4066 -29.5005L-63.7913 -39.6624L-46.782 -22.3456L-55.7625 -12.1583L-73.1451 -11.1038C-73.5617 -11.0711 -73.9419 -10.5749 -73.9055 -10.1114C-73.8691 -9.64799 -73.4161 -9.21725 -72.9995 -9.24997L-55.3391 -10.3263C-55.2003 -10.3372 -54.9347 -10.5135 -54.808 -10.6789L-45.574 -21.197L-37.2082 -12.5277L-47.1189 12.4996C-47.1068 12.6541 -47.2335 12.8195 -47.2214 12.9739C-47.1971 13.2829 -47.0461 13.4265 -46.883 13.7246L-40.4748 18.8171L-46.5054 22.0887C-46.771 22.265 -46.8977 22.4304 -47.0124 22.7503L-49.3137 36.1435L-61.0554 41.4182C-61.1942 41.4291 -61.321 41.5945 -61.321 41.5945L-82.1779 67.7924L-81.9716 70.4187L-60.2276 43.063L-48.3591 37.623C-48.0935 37.4467 -47.9668 37.2813 -47.8522 36.9614L-45.563 23.4137L-38.8623 19.7785L-17.0764 23.1968C-16.7986 23.175 -16.5209 23.1532 -16.3942 22.9878L-11.101 17.4425C-10.8354 17.2662 -10.733 16.7918 -10.8961 16.4937L-18.3074 -6.70656L-11.0149 -9.92187L9.17354 15.8499L22.3471 28.8048L-49.7663 115.765L-80.5774 84.6097L-80.3712 87.236L-49.8984 117.64L-28.9752 138.536L-46.7217 182.987L-62.3867 191.679L-72.7505 184.254L-72.5685 186.572L-49.9142 202.823C-50.041 202.989 -50.0288 203.143 -50.0045 203.452C-49.9802 203.761 -49.8293 203.905 -49.6661 204.203C-49.2253 204.479 -48.8087 204.446 -48.5673 203.961L-32.8767 215.164L-42.1268 230.813C-47.0249 227.156 -51.9351 223.345 -56.9721 219.699C-59.9436 217.445 -63.0539 215.202 -66.0376 212.794C-67.6744 211.524 -69.1601 210.397 -70.6458 209.27L-69.5416 223.329C-65.9364 224.755 -63.1766 226.093 -61.401 227.352C-60.9601 227.629 -60.6581 227.916 -60.2173 228.192L-67.8737 242.783L-67.5218 247.263L-61.1622 251.738C-60.7213 252.014 -60.3169 251.827 -60.0634 251.496C-59.8221 251.011 -59.9974 250.558 -60.2993 250.271L-67.2508 245.377L-58.8582 229.484C-47.1354 238.201 -32.4289 249.325 -16.3755 261.588L-29.108 296.94L-65.2095 278.481L-65.0396 280.644L-62.8595 281.716L-64.6027 286.205L-64.2994 290.067L-61.2591 282.523L-25.7374 300.717L-3.73698 312.201C-3.59813 312.191 -3.58602 312.345 -3.44714 312.334L17.8373 314.704L18.4902 395.948L7.24328 384.396C6.94127 384.109 6.51255 383.987 6.12022 384.329L-8.96364 396.861L-58.2616 368.712L-58.0918 370.875L-10.2431 398.36L-37.3746 437.176L-35.1528 437.001L-8.40146 398.682L6.42893 386.481L24.0544 404.526L47.3343 430.522L49.5562 430.347L27.1944 405.368C32.7437 406.642 45.9617 409.49 58.902 412.359C62.1687 413.035 65.3088 413.877 68.4366 414.564C68.3342 415.038 68.3706 415.502 68.2681 415.976C67.6722 420.841 67.0278 425.089 66.4979 429.016L75.9409 428.275C75.9288 428.12 75.9045 427.811 75.8924 427.657C76.0003 425.472 76.1256 421.732 76.6972 416.557C84.6558 418.264 90.495 419.67 90.9116 419.638C91.618 419.738 101.285 420.066 112.509 418.874L118.434 424.937L120.656 424.762L114.592 418.71C122.622 417.769 131.159 416.165 137.63 413.17C138.869 416.492 140.247 419.804 141.486 423.126L150.651 422.406C149.062 418.179 147.321 413.808 145.732 409.58C155.022 405.12 178.445 393.798 182.943 392.357C184.168 391.95 193.429 388.891 207.58 384.049C209.627 383.422 211.939 382.618 214.251 381.815L224.945 416.571L228.417 416.298L217.523 380.781C268.567 363.559 363.983 331.349 375.871 327.928C376.21 332.254 376.423 336.745 376.775 341.225C377.352 350.351 377.911 357.457 377.839 360.105C377.851 360.26 377.863 360.414 377.888 360.723C378.325 366.285 383.693 384.827 389.666 403.943L393.138 403.67C386.79 383.34 381.258 364.5 381.208 360.307C381.129 357.515 380.697 350.243 380.12 341.118C379.805 337.101 379.58 332.455 379.191 327.512C389.721 326.374 433.457 321.073 447.03 319.541L464.676 375.201L460.775 391.363L442.019 399.831L447.435 399.405L460.251 393.58L459.1 398.489L467.709 397.813L467.624 396.731ZM395.014 320.828L383.888 278.801L397.393 274.631L405.657 299.785C405.82 300.083 406.122 300.37 406.4 300.349L421.217 300.428L424.45 307.791L414.827 313.365C414.423 313.553 414.321 314.027 414.345 314.336L415.216 318.309C408.309 319.318 401.112 320.194 395.014 320.828ZM445.543 314.839C439.596 315.617 428.523 316.953 416.894 318.333L416.211 314.967L425.96 309.227C426.364 309.04 426.455 308.411 426.279 307.958L422.382 299.249C422.218 298.951 421.916 298.663 421.639 298.685L406.822 298.606L398.546 273.297C398.371 272.844 397.93 272.568 397.526 272.755L382.517 277.354C382.113 277.541 381.859 277.872 381.896 278.335L381.908 278.49L393.221 321.125C386.718 321.946 381.454 322.515 378.55 322.899C377.292 301.547 376.032 276.62 377.8 272.44C380.14 266.66 400.5 234.128 413.564 213.672L445.543 314.839ZM455.584 188.299C443.54 193.286 430.953 198.472 419.175 203.283L416.938 196.153L406.701 140.532C413.469 139.534 427.271 137.362 442.739 135.059L455.584 188.299ZM385.441 90.4401C388.237 92.2412 389.88 95.3763 390.824 100.276L408.854 198.187C408.866 198.341 408.891 198.65 409.042 198.794L411.466 206.531C390.361 215.339 373.186 222.595 369.407 224.29L359.818 191.158C359.643 190.705 359.341 190.418 358.924 190.451L319.902 193.516L317.378 161.382C317.366 161.228 317.354 161.073 317.203 160.93L290.17 124.504L293.345 122.234C309.763 110.685 327.336 101.377 345.52 94.5084C366.076 87.6088 379.105 86.2745 385.441 90.4401ZM149.429 273.435L128.346 275.402C128.346 275.402 128.346 275.402 128.334 275.247C160.243 226.108 179.306 196.632 187.639 183.542L207.636 197.982L190.771 242.985C190.783 243.14 190.656 243.305 190.669 243.46C190.693 243.769 190.856 244.067 191.146 244.199C191.587 244.476 192.118 244.123 192.22 243.649L217.729 175.272L255.05 163.014L273.616 178.809L259.508 246.446L233.415 239.791C232.987 239.669 232.455 240.022 232.353 240.496C232.365 240.651 232.365 240.651 232.377 240.805C232.414 241.269 232.716 241.556 233.006 241.688L259.249 248.487L260.936 269.961L226.959 266.101L149.429 273.435ZM116.042 326.886C122.921 314.843 134.066 298.424 141.712 287.253C141.724 287.408 141.724 287.408 141.875 287.551L146.955 293.525L143.969 315.988L124.714 330.557L116.042 326.886ZM123.863 332.179L121.416 359.729C118.233 356.559 113.576 352.417 107.875 347.424C110.196 339.625 112.603 332.908 115.052 328.518L123.863 332.179ZM114.086 326.885C111.497 331.285 108.964 338.168 106.516 346.132C103.381 343.58 100.083 340.731 96.3445 337.605C103.686 318.997 113.544 298.637 127.103 277.365L147.631 275.441C142.737 282.51 123.782 309.802 114.086 326.885ZM116.271 278.215C104.752 296.996 95.9737 315.095 89.1935 331.949C82.3324 326.425 74.7284 320.339 66.5325 313.832L90.3811 279.472L116.271 278.215ZM72.0994 329.561L68.1653 352.409L59.3372 350.304L64.0666 323.352C66.8871 325.462 69.5687 327.583 72.0994 329.561ZM65.1856 312.694C53.2753 303.371 40.1813 293.208 26.2056 282.492L88.147 279.492L65.1856 312.694ZM-6.15066 -47.6097L15.4439 -23.5028L-10.2127 -12.161L-22.4816 -27.8295L-6.15066 -47.6097ZM-23.7139 -29.2871L-30.7031 -38.22L-26.1947 -43.0819C-26.068 -43.2473 -25.9534 -43.5672 -25.9777 -43.8762C-26.002 -44.1851 -26.1529 -44.3287 -26.3161 -44.6268L-42.1402 -57.5289L-27.2923 -71.2859L-7.37083 -48.9128L-23.7139 -29.2871ZM36.127 -30.5678C36.2659 -30.5787 36.3926 -30.7441 36.5193 -30.9095L46.3735 -45.9841L66.2518 -25.9392C66.4028 -25.7957 66.6926 -25.663 66.9704 -25.6848C67.2481 -25.7066 67.3749 -25.872 67.5016 -26.0374L75.7203 -38.8074L124.894 12.667C125.045 12.8106 125.335 12.9433 125.474 12.9323L146.582 11.2744L169.128 45.7211C169.141 45.8756 169.279 45.8646 169.43 46.0082L185.501 56.7148L190.32 73.5902L187.235 91.2419L180.576 93.6302L148.634 104.999L80.333 39.4833L36.657 -2.47469L18.584 -22.6613L36.127 -30.5678ZM177.065 162.766L221.881 139.194L226.19 149.581L187.863 168.602C187.193 168.966 186.673 169.473 186.167 170.134C186.167 170.134 185.177 171.766 183.186 174.876L177.065 162.766ZM181.918 176.53C174.068 188.649 154.776 218.766 121.623 269.867C120.254 271.996 118.884 274.124 117.514 276.252L91.763 277.498L166.187 170.149L175.598 163.659L181.918 176.53ZM180.33 95.8258L188.218 119.766L162.768 133.734L149.613 106.788L180.33 95.8258ZM126.764 116.51L107.416 96.1126L120.301 80.4891L146.739 105.77L126.764 116.51ZM228.459 98.4184L210.572 107.285L203.151 91.0798L219.444 67.2611L228.459 98.4184ZM220.736 65.9161L236.39 60.6451C236.125 60.8214 236.01 61.1412 236.034 61.4502L236.046 61.6047L243.792 90.8409L229.938 97.6805L220.736 65.9161ZM201.684 91.9722L209.105 108.177L189.685 118.873L181.96 95.2314L188.075 93.0412L201.684 91.9722ZM209.794 109.833L216.557 126.555L170.756 150.049L163.445 135.235L209.794 109.833ZM217.397 128.355L221.192 137.538L176.388 161.265L171.735 151.838L217.397 128.355ZM223.348 138.302L311.894 91.5538L314.396 98.5075C305.546 103.244 296.884 108.588 288.536 114.373L268.272 128.555L227.657 148.689L223.348 138.302ZM222.659 136.646L219.002 127.451L308.327 81.7303L311.331 89.7327L222.659 136.646ZM218.175 125.807L211.412 109.084L301.77 64.0589L307.638 80.0746L218.175 125.807ZM303.249 63.3209L353.564 36.8298C357.358 42.4385 360.005 47.6711 361.631 52.362L309.105 79.1821L303.249 63.3209ZM302.548 61.5107L294.902 40.6604L335.399 13.697L351.051 33.2966C351.528 34.0363 351.994 34.6216 352.471 35.3613L302.548 61.5107ZM301.069 62.2486L290.577 67.4251L283.884 44.4792L293.41 41.2439L301.069 62.2486ZM288.971 68.3284L272.032 76.8092L265.791 50.7191L282.266 45.2281L288.971 68.3284ZM270.553 77.5472L245.41 90.0921L237.827 61.1539C237.652 60.7014 237.362 60.5687 237.072 60.436L264.3 51.3025L270.553 77.5472ZM223.573 62.8954L213.422 43.9517L217.031 40.0931C217.423 39.7514 217.375 39.1335 217.073 38.8463C216.759 38.4047 216.203 38.4483 215.95 38.7791L211.96 43.1339C211.833 43.2993 211.719 43.6192 211.743 43.9282C211.755 44.0826 211.767 44.2371 211.918 44.3807L222.232 63.6224L220.059 64.4149L206.007 58.0575L181.652 16.6026L195.227 6.20982L198.919 12.2929C199.07 12.4365 199.221 12.5801 199.511 12.7128C199.788 12.6909 199.927 12.68 200.193 12.5037L209.911 4.59013C210.037 4.42473 210.176 4.41382 210.164 4.25935L246.951 45.6704L249.043 54.5216L223.573 62.8954ZM199.745 10.3627L196.066 4.43411C195.915 4.29052 195.764 4.14694 195.474 4.01426C195.196 4.03608 195.057 4.04699 194.792 4.22329L180.559 15.1341L169.75 -3.29159C170.04 -3.15891 170.317 -3.18073 170.583 -3.35704L189.271 -18.0374C189.397 -18.2028 189.524 -18.3682 189.512 -18.5227L208.678 3.13252L208.54 3.14342L199.745 10.3627ZM169.743 -5.15633C169.477 -4.98004 169.363 -4.66014 169.387 -4.35118L114.328 -98.7312L122.432 -111.181L145.395 -108.788L180.258 -29.6093C180.27 -29.4548 180.409 -29.4657 180.421 -29.3112L188.859 -19.7149C188.721 -19.704 188.721 -19.704 188.594 -19.5386L169.743 -5.15633ZM204.413 59.1154C204.564 59.2589 204.715 59.4025 204.866 59.5461L218.351 65.7926L201.69 90.2619L188.914 91.2655L191.896 74.0882C191.884 73.9337 191.872 73.7792 191.86 73.6247L186.854 56.1423C186.841 55.9878 186.678 55.6897 186.527 55.5461L170.444 44.6851L147.584 9.79671C147.421 9.49864 147.131 9.36596 146.853 9.38777L125.745 11.0458L76.722 -40.285L113.199 -97.0882L204.413 59.1154ZM92.0275 53.1762L83.0349 63.209L71.6248 51.3591L79.9231 41.3808L92.0275 53.1762ZM78.4374 40.254L69.6322 50.8938C69.5054 51.0592 69.3909 51.3791 69.403 51.5336C69.4151 51.6881 69.5782 51.9862 69.7292 52.1297L81.7433 64.554L72.2317 75.0939L46.1744 49.3167L65.276 27.4536L78.4374 40.254ZM93.2477 54.4793L119.093 79.3404L105.689 95.471L99.8111 102.461L73.4518 76.397L93.2477 54.4793ZM106.403 97.4357L125.158 117.413L102.895 129.266L89.299 118.054L100.524 104.426L106.403 97.4357ZM126.921 118.518L147.983 107.382L161.289 134.472L112.614 156.948L103.988 130.734L126.921 118.518ZM161.966 135.973L169.277 150.787L120.902 182.411L113.025 158.625L161.966 135.973ZM170.117 152.587L174.77 162.014L165.233 168.67C165.094 168.681 165.106 168.835 164.967 168.846L106.48 253.181L91.0671 241.957L112.675 205.752C112.916 205.266 112.88 204.803 112.439 204.527C111.998 204.25 111.582 204.283 111.34 204.768L67.7322 277.52L62.0237 254.653L107.646 191.535L120.818 184.905L170.117 152.587ZM66.4285 278.711L23.9769 280.802C21.1443 278.537 18.1728 276.284 15.2013 274.03L22.1042 262.296L60.5447 255.39L66.4285 278.711ZM90.2042 243.423L105.478 254.659L89.5411 277.672L69.218 278.647L90.2042 243.423ZM261.295 247.86L275.712 178.8C275.826 178.48 275.651 178.028 275.361 177.895L256.04 161.382C255.889 161.238 255.599 161.105 255.333 161.282L217.191 173.76C216.913 173.781 216.798 174.101 216.671 174.267L208.487 196.36L188.792 182.208C190.542 179.583 191.658 177.786 192.279 176.804L272.031 137.276C272.17 137.265 272.435 137.089 272.562 136.923L288.588 125.716L315.483 162.153L318.055 194.904C318.092 195.368 318.545 195.798 318.961 195.766L358.261 192.679L367.813 225.348L337.69 240.305C337.551 240.316 337.563 240.47 337.424 240.481L320.689 260.449L284.5 265.778C284.222 265.8 284.095 265.966 283.969 266.131L279.564 274.094L263.813 278.129L261.434 247.849L261.295 247.86ZM315.875 97.7696L309.806 80.9923L362.332 54.1722C363.692 59.0395 364.044 63.5196 362.959 67.4909C360.517 77.32 350.605 82.7618 342.606 85.8772C333.508 89.2343 324.598 93.1984 315.875 97.7696ZM387.224 81.1289C382.145 78.7299 375.395 78.1721 366.556 79.4882C368.559 76.5329 369.995 73.4667 370.851 70.1352C371.695 66.6492 371.947 62.7434 371.505 58.8921L386.516 77.454L387.224 81.1289ZM385.881 58.6955C386.003 60.2404 386.112 61.6308 386.233 63.1757L335.581 0.00388147L350.899 -18.4532C361.543 -3.90063 369.988 7.56038 370.719 7.9693C371.89 8.65448 378.599 10.4591 383.026 11.6659C383.411 25.4698 384.704 43.7102 385.881 58.6955ZM313.45 -70.0713C322.536 -57.5726 337.439 -36.826 349.805 -19.9217L334.488 -1.46464L298.86 -45.9201L313.45 -70.0713ZM297.639 -47.2232L267.593 -84.6559L321.287 -85.9201L312.851 -72.3559L297.639 -47.2232ZM383.021 0.940777C382.95 3.58887 383.042 6.53506 383.019 9.80111C377.874 8.33994 372.3 6.757 371.57 6.34808C370.664 5.48659 362.683 -5.38919 352.051 -19.7872L378.594 -51.8722L388.434 -54.6659C386.014 -35.6674 383.252 -12.1344 383.021 0.940777ZM388.832 -56.7178L378.031 -53.6933C377.893 -53.6824 377.766 -53.517 377.639 -53.3516L371.9 -46.3723L363.766 -64.5417L392.023 -80.1292C391.415 -75.4182 390.138 -66.7686 388.832 -56.7178ZM349.127 -105.05L382.718 -98.9838L392.131 -82.3138L362.926 -66.341L346.483 -103.132L349.127 -105.05ZM345.191 -101.787L370.62 -44.8728L350.97 -21.1013C339.534 -36.8352 325.573 -56.2567 314.44 -71.7035L323.243 -85.9184L324.493 -86.0165C325.326 -86.082 326.147 -86.3019 326.932 -86.9853L345.191 -101.787ZM210.143 -145.428C211.382 -142.106 212.095 -140.141 212.246 -139.998C212.422 -139.545 212.736 -139.104 213.05 -138.662L301.166 -29.0028L270.422 -29.0749C266.846 -31.9028 219.278 -68.2701 210.423 -77.8337C204.763 -84.0731 206.767 -115.474 209.608 -139.791C209.596 -139.945 209.723 -140.11 209.723 -140.11C209.723 -140.11 209.723 -140.11 209.71 -140.265C209.704 -142.13 209.848 -143.851 210.143 -145.428ZM255.579 -17.0282C255.313 -16.8519 255.199 -16.532 255.223 -16.223C255.235 -16.0685 255.247 -15.914 255.398 -15.7705L255.574 -15.3179C254.016 -13.7966 252.32 -12.2644 250.763 -10.7431C250.751 -10.8976 250.727 -11.2066 250.576 -11.3502L233.426 -32.2312L247.248 -44.8194C257.22 -37.0534 265.844 -30.4252 268.677 -28.1606C265.182 -24.6219 261.03 -20.5651 256.877 -16.5084L256.726 -16.652C256.412 -17.0936 255.983 -17.2154 255.579 -17.0282ZM249.423 -10.0161C249.574 -9.87252 249.725 -9.72895 249.864 -9.73986C243.231 -3.46753 237.623 1.63614 236.144 2.37407C234.496 0.949174 226.498 -8.37082 218.035 -18.276L232.123 -31.0407L249.423 -10.0161ZM207.688 -139.329C206.027 -124.898 204.284 -104.398 205.376 -90.4943C205.886 -84.0058 206.993 -78.8078 209.119 -76.6432C214.163 -71.1326 231.032 -57.3799 245.775 -45.7918L216.815 -19.5792C213.118 -23.952 209.27 -28.4684 206.026 -32.4105C205.712 -32.8522 205.157 -32.8085 204.903 -32.4778C204.776 -32.3124 204.662 -31.9925 204.686 -31.6835C204.698 -31.529 204.723 -31.22 204.874 -31.0765C211.663 -22.9051 233.995 3.47553 235.735 4.27156C236.175 4.54781 237.335 5.0785 256.679 -13.6949L269.638 7.20433L264.393 9.79256C263.988 9.97978 263.759 10.6195 263.934 11.0721C264.109 11.5246 264.689 11.79 265.094 11.6028L271.275 8.47474C271.541 8.29844 271.668 8.13304 271.782 7.81316C271.897 7.49327 271.734 7.1952 271.721 7.04071L264.363 -4.81653L269.524 -8.48616L280.682 7.26954C280.996 7.71118 281.563 7.82205 281.817 7.49125C282.209 7.14955 282.3 6.5207 281.998 6.23354L270.362 -10.2619C270.048 -10.7036 269.632 -10.6708 269.227 -10.4836L263.408 -6.29596L258.122 -14.8963C261.616 -18.435 265.769 -22.4918 270.706 -27.2319L302.852 -27.1144L334.596 12.3611L293.971 39.49L250.824 54.0709L248.581 45.0761C248.569 44.9216 248.418 44.778 248.405 44.6235L181.876 -30.3581L153.014 -95.3969L172.713 -102.54C172.978 -102.716 173.232 -103.047 173.346 -103.367L175.102 -139.723L207.688 -139.329ZM141.823 -132.912L158.467 -139.815L173.435 -139.592L171.758 -104.019L152.325 -97.0526L146.548 -110.122C146.385 -110.42 146.095 -110.553 145.805 -110.686L123.687 -112.99L141.823 -132.912ZM61.457 -138.568L58.3156 -126.974L41.3024 -122.995L42.0156 -137.041L61.457 -138.568ZM4.28287 -126.461L20.0625 -119.462C20.4913 -119.34 21.0346 -119.538 21.1371 -120.012C21.2395 -120.487 21.0521 -121.094 20.6234 -121.216L4.6927 -128.358L2.81732 -138.003L13.3078 -146.755L26.5528 -136.448L27.8998 -119.3C27.9362 -118.837 28.3892 -118.406 28.8058 -118.439C29.2224 -118.471 29.6025 -118.967 29.5661 -119.431L28.2677 -135.961L40.2103 -136.899L39.4311 -121.916L39.4433 -121.761C39.4675 -121.452 39.6185 -121.309 39.7695 -121.165C39.9205 -121.021 40.2104 -120.889 40.4881 -120.911L59.0168 -125.164C59.2945 -125.186 59.548 -125.517 59.6626 -125.836L62.9966 -138.534L96.4488 -132.456L95.2503 -124.59C95.1479 -124.116 95.462 -123.674 95.8907 -123.553L122.986 -114.8L121.188 -112.793L66.7884 -28.0021L47.3752 -47.4618L81.8194 -99.9083C82.0729 -100.239 82.0243 -100.857 81.5834 -101.133L72.1674 -108.943C71.8654 -109.23 71.3099 -109.186 70.9297 -108.69C70.6763 -108.359 70.7248 -107.742 71.1778 -107.311L79.851 -100.065L64.8737 -77.2819L55.3241 -86.7909C55.0221 -87.078 54.4667 -87.0344 54.2132 -86.7036L33.4587 -60.9801L22.6891 -71.7922L1.31288 -93.1183L11.2047 -104.154C11.5971 -104.496 11.5485 -105.114 11.2344 -105.556C10.9203 -105.997 10.3648 -105.954 9.97248 -105.612L-0.046118 -94.4106L-11.5708 -105.941L4.28287 -126.461ZM46.1551 -48.7649L34.7814 -60.1513L54.9022 -85.0479L63.9987 -75.9696L46.1551 -48.7649ZM-12.4701 -104.937L-1.08427 -93.3964L-9.55784 -83.8707C-9.68456 -83.7053 -9.79914 -83.3854 -9.78701 -83.2309L-9.78426 -76.0808C-9.74785 -75.6174 -9.43374 -75.1757 -8.87829 -75.2194C-8.46167 -75.2521 -8.06934 -75.5938 -7.979 -76.2226L-7.94534 -82.9092L0.413612 -92.1151L21.047 -71.3523L10.9866 -58.904C10.8598 -58.7386 10.7452 -58.4188 10.7574 -58.2643C10.7695 -58.1098 10.9326 -57.8117 11.0836 -57.6681C11.3856 -57.381 11.9532 -57.2701 12.3335 -57.7663L22.3938 -70.2146L45.2922 -47.2981L35.426 -32.3781L17.1885 -24.417L-33.056 -80.626L-12.4701 -104.937ZM-76.8542 -31.6415L-89.8579 -42.4336L-66.1333 -69.4785L-52.1334 -90.4746L-38.9316 -98.5064L-35.0001 -80.4732C-34.988 -80.3188 -34.837 -80.1752 -34.837 -80.1752L-28.3978 -72.9089L-43.8916 -58.4795L-76.8542 -31.6415ZM-62.4997 -41.0074L-43.444 -56.3385L-28.0728 -43.867L-32.4424 -39.016L-45.6414 -23.8342L-62.4997 -41.0074ZM-44.4213 -22.531L-31.8558 -36.8859L-24.7157 -27.8095L-36.2065 -14.0053L-44.4213 -22.531ZM-19.6839 -6.443L-12.4237 16.6137L-17.071 21.4865L-38.4282 18.19L-45.2772 12.8212L-35.7467 -11.7098L-19.6839 -6.443ZM-19.1231 -8.1969L-34.6062 -13.1984L-23.6222 -26.3409L-11.8184 -11.2577L-19.1231 -8.1969ZM10.7429 14.4831L-9.1193 -10.6925L16.6762 -22.0452L34.7493 -1.85852L15.7381 19.3758L10.7429 14.4831ZM24.7618 27.5271C24.4598 27.2399 24.182 27.2617 23.7776 27.4489L16.9582 20.6789L35.9695 -0.555399L64.0801 26.4594L44.9785 48.3226L24.9856 28.5976C25.1002 28.2777 25.0638 27.8142 24.7618 27.5271ZM23.9838 30.0752L98.8093 103.939L87.9521 116.916L59.4263 93.5091C58.9854 93.2328 58.5688 93.2655 58.1886 93.7617C57.9473 94.247 57.9837 94.7105 58.4367 95.1412L86.3707 118.128L68.411 126.068L-8.95578 69.6575L23.9838 30.0752ZM77.6735 158.604C78.0779 158.417 78.3193 157.932 78.144 157.479L73.7851 142.899C73.6099 142.447 73.169 142.171 72.7524 142.203L61.9396 145.073L57.334 132.689L78.3906 123.263L92.2586 168.184L73.4886 172.923L68.5999 162.27L77.6735 158.604ZM67.9231 160.769L62.7675 146.718L72.6202 144.079L76.4291 156.992L67.9231 160.769ZM28.5805 145.518L41.27 139.858L54.1578 179.415L41.0032 184.49L28.5805 145.518ZM39.3854 185.239L22.0351 192.042L10.5777 151.129L27.1015 146.255L39.3854 185.239ZM27.3482 144.06L9.86446 149.164L-4.4336 116.556L18.0358 91.3198L66.5033 126.684L56.1139 131.386L41.5288 137.817L27.3482 144.06ZM-10.1085 70.9916L16.5622 90.3475L-5.52702 115.088L-26.9707 91.1244L-10.1085 70.9916ZM-48.1417 116.881L-27.9724 92.602L-6.67975 116.422L-27.9735 137.058L-48.1417 116.881ZM-26.7655 138.207L-5.72519 117.901L8.53647 150.045L-0.0516886 159.891L-15.133 147.552L-26.7655 138.207ZM-60.7621 192.794L-45.7672 184.466C-45.6405 184.301 -45.5015 184.29 -45.387 183.97L-27.7672 139.684L-16.8655 148.621L-49.0635 201.202L-60.7621 192.794ZM-47.5899 202.174L-15.3797 149.748L-1.04127 161.523L-31.8871 213.532L-47.5899 202.174ZM-30.5645 214.36L-0.201319 163.322L8.32905 191.875L-10.2776 228.933L-30.5645 214.36ZM-40.8041 231.641L-31.4152 215.982L-10.9895 230.543L-19.5749 247.539C-26.6895 242.346 -33.6774 236.988 -40.8041 231.641ZM-18.228 248.676L10.0561 192.517C10.1828 192.351 10.1586 192.042 10.1343 191.733L1.0539 161.514L9.12295 152.175L20.7435 193.387C20.7678 193.696 20.9188 193.84 21.2087 193.972C21.3596 194.116 21.6374 194.094 21.9151 194.072L55.68 181.006C56.0845 180.818 56.3258 180.333 56.1505 179.881L42.9121 139.418L56.006 133.571L66.8068 162.567L72.5112 174.709C72.6865 175.162 73.1152 175.284 73.5318 175.251L93.8051 170.083L100.047 167.728C100.452 167.541 100.693 167.055 100.518 166.603C100.343 166.15 99.9017 165.874 99.4972 166.061L93.925 168.053L80.0448 122.978L87.8807 119.564L102.068 131.196L119.32 183.623L106.691 190.056C106.553 190.067 106.426 190.232 106.438 190.387L60.7011 253.824L21.4395 260.949C21.1618 260.971 21.0351 261.136 20.9083 261.302L13.752 273.367C3.46633 265.159 -7.37478 256.995 -18.228 248.676ZM-3.35142 309.995L-25.2008 298.654L-27.6829 297.295L-15.065 262.262C-4.5138 270.293 6.47833 278.601 17.4826 287.063L17.6553 312.386L-3.35142 309.995ZM25.1343 402.265L20.0784 396.6L19.1193 288.334C34.14 299.9 49.1606 311.466 62.7076 322.06L57.5562 350.755L47.5971 407.185C36.2329 404.813 26.6982 402.609 25.1343 402.265ZM49.312 407.672L59.2051 352.18L68.0333 354.284L58.5568 409.744C55.2901 409.068 52.301 408.37 49.312 407.672ZM59.9819 410.098L73.5972 330.842C77.9156 334.233 81.9442 337.492 85.8217 340.607C74.6329 370.709 70.3254 395.918 68.5081 411.916C65.8089 411.35 62.9709 410.796 59.9819 410.098ZM77.0464 413.887C77.3834 411.063 77.8351 407.919 78.1479 404.785C80.3643 390.311 84.5046 370.089 92.9969 346.572C97.0254 349.831 100.613 352.813 103.772 355.674C96.9407 380.77 91.5182 411.352 90.4276 417.033C88.5616 416.403 83.5799 415.239 77.0464 413.887ZM137.285 410.555C130.536 413.572 121.443 415.219 112.997 416.193L112.858 416.204C103.439 417.255 94.9077 417.148 92.245 417.046C92.6427 414.994 93.5042 409.952 94.7998 403.322L94.9387 403.311L118.026 398.389C118.442 398.356 118.822 397.86 118.635 397.253C118.599 396.789 118.146 396.359 117.602 396.557L95.0707 401.435C97.4571 389.123 101.134 371.892 105.119 356.812C112.469 363.229 117.452 367.967 119.035 370.33C123.609 376.966 130.474 393.214 137.285 410.555ZM206.395 379.634C192.371 384.311 183.122 387.524 181.896 387.931C177.133 389.549 153.698 400.716 144.408 405.177C137.596 387.836 130.755 371.896 126.134 364.643C125.505 363.76 124.575 362.589 123.204 361.142L125.795 331.872L145.177 317.137C145.304 316.971 145.431 316.806 145.545 316.486L148.61 293.24C148.585 292.931 148.561 292.622 148.41 292.478L143.028 286.217C142.877 286.074 142.726 285.93 142.587 285.941C146.479 280.35 149.243 276.403 149.991 275.256L227.521 267.922L261.51 271.937L262.068 279.043L267.382 359.144C249.542 365.053 229.264 371.931 206.395 379.634ZM269.151 358.539L263.934 279.674L280.368 275.43C280.645 275.408 280.772 275.242 280.899 275.077L285.177 267.28L321.227 261.961C321.366 261.95 321.631 261.774 321.758 261.608L338.481 241.486L369.021 226.497C369.564 226.299 388.218 218.305 411.901 208.517L412.113 209.433C404.021 222.038 377.41 263.921 374.611 270.98C372.753 275.789 373.607 297.329 375.229 323.315C369.077 325.042 337.352 335.617 269.151 358.539Z" fill="white"/>
</g>
<defs>
<clipPath id="clip0_365:21057">
<rect width="447" height="269" rx="10" fill="white"/>
</clipPath>
</defs>
</svg>
