<svg width="332" height="237" viewBox="0 0 332 237" fill="none" xmlns="http://www.w3.org/2000/svg">
<path d="M71.6803 237C111.268 237 143.361 204.762 143.361 164.994C143.361 125.227 111.268 92.9888 71.6803 92.9888C32.0924 92.9888 0 125.227 0 164.994C0 204.762 32.0924 237 71.6803 237Z" fill="#DEF4EE"/>
<path d="M269.984 157.382C301.368 157.382 326.809 131.825 326.809 100.299C326.809 68.7738 301.368 43.2172 269.984 43.2172C238.601 43.2172 213.16 68.7738 213.16 100.299C213.16 131.825 238.601 157.382 269.984 157.382Z" fill="#95E9D0"/>
<path opacity="0.5" d="M281.525 64.247C299.193 64.247 313.516 49.8648 313.516 32.1235C313.516 14.3822 299.193 0 281.525 0C263.856 0 249.533 14.3822 249.533 32.1235C249.533 49.8648 263.856 64.247 281.525 64.247Z" fill="#95E9D0"/>
<path d="M164.056 189.967C167.521 176.049 159.098 161.944 145.242 158.463C131.386 154.982 117.344 163.444 113.879 177.363C110.414 191.282 118.838 205.387 132.694 208.867C146.55 212.348 160.591 203.886 164.056 189.967Z" fill="#B0ECDB"/>
<path d="M290.572 19.3069H53.8149C47.5669 19.3069 42.502 24.3948 42.502 30.6711V176.613C42.502 182.889 47.5669 187.977 53.8149 187.977H290.572C296.82 187.977 301.885 182.889 301.885 176.613V30.6711C301.885 24.3948 296.82 19.3069 290.572 19.3069Z" fill="#FCFCFC"/>
<g style="mix-blend-mode:multiply" opacity="0.3">
<g style="mix-blend-mode:multiply" opacity="0.03">
<path d="M57.4538 172.91C53.845 172.902 50.3861 171.459 47.8349 168.894C45.2837 166.33 43.8482 162.855 43.8428 159.23V40.0222C43.8482 36.397 45.2837 32.9217 47.8349 30.3577C50.3861 27.7936 53.845 26.3498 57.4538 26.3425H286.694C290.304 26.3462 293.766 27.7886 296.319 30.3532C298.872 32.9179 300.308 36.3953 300.312 40.0222V159.23C300.306 162.856 298.87 166.333 296.317 168.897C293.764 171.461 290.304 172.904 286.694 172.91H57.4538Z" fill="#FDFDFE"/>
</g>
<g style="mix-blend-mode:multiply" opacity="0.06">
<path d="M57.6385 172.655C54.0709 172.65 50.651 171.223 48.1289 168.688C45.6068 166.154 44.1884 162.718 44.1848 159.134V40.1115C44.1884 36.5282 45.607 33.0928 48.1293 30.5591C50.6516 28.0254 54.0715 26.6003 57.6385 26.5967H286.516C290.084 26.6003 293.504 28.0251 296.028 30.5587C298.551 33.0922 299.971 36.5276 299.977 40.1115V159.134C299.973 162.719 298.554 166.156 296.03 168.691C293.507 171.226 290.085 172.652 286.516 172.655H57.6385Z" fill="#FAFBFE"/>
</g>
<g style="mix-blend-mode:multiply" opacity="0.1">
<path d="M57.8164 172.401C54.2917 172.396 50.9128 170.987 48.4204 168.483C45.9281 165.979 44.5254 162.585 44.52 159.044V40.1802C44.5309 36.6437 45.9361 33.2555 48.4281 30.7573C50.9201 28.2592 54.2958 26.8546 57.8164 26.851H286.345C289.868 26.8564 293.245 28.2647 295.736 30.7671C298.227 33.2695 299.629 36.6619 299.635 40.2008V159.065C299.629 162.605 298.228 165.998 295.737 168.501C293.246 171.005 289.869 172.414 286.345 172.422L57.8164 172.401Z" fill="#F8F9FD"/>
</g>
<g style="mix-blend-mode:multiply" opacity="0.13">
<path d="M57.9941 172.147C54.5129 172.141 51.1758 170.75 48.7142 168.277C46.2526 165.804 44.8672 162.452 44.8618 158.955V40.297C44.8654 36.7994 46.2502 33.4461 48.7122 30.9729C51.1742 28.4998 54.5123 27.1087 57.9941 27.1051H286.167C289.649 27.1087 292.987 28.4998 295.449 30.9729C297.911 33.4461 299.296 36.7994 299.299 40.297V158.955C299.294 162.452 297.909 165.804 295.447 168.277C292.985 170.75 289.648 172.141 286.167 172.147H57.9941Z" fill="#F6F7FC"/>
</g>
<g style="mix-blend-mode:multiply" opacity="0.16">
<path d="M58.1376 171.886C54.6909 171.886 51.3855 170.51 48.9484 168.062C46.5113 165.614 45.1421 162.294 45.1421 158.831V40.3864C45.1421 36.9241 46.5113 33.6037 48.9484 31.1555C51.3855 28.7073 54.6909 27.3319 58.1376 27.3319H285.989C289.436 27.3319 292.741 28.7073 295.178 31.1555C297.615 33.6037 298.985 36.9241 298.985 40.3864V158.859C298.985 162.321 297.615 165.642 295.178 168.09C292.741 170.538 289.436 171.913 285.989 171.913L58.1376 171.886Z" fill="#F3F5FC"/>
</g>
<g style="mix-blend-mode:multiply" opacity="0.19">
<path d="M58.343 171.632C54.9483 171.628 51.6937 170.272 49.2933 167.86C46.8928 165.449 45.5427 162.18 45.5391 158.769V40.4756C45.5427 37.0655 46.8928 33.7961 49.2933 31.3848C51.6937 28.9734 54.9483 27.6172 58.343 27.6135H285.818C289.213 27.6172 292.468 28.9734 294.868 31.3848C297.269 33.7961 298.619 37.0655 298.622 40.4756V158.769C298.619 162.18 297.269 165.449 294.868 167.86C292.468 170.272 289.213 171.628 285.818 171.632H58.343Z" fill="#F1F3FB"/>
</g>
<g style="mix-blend-mode:multiply" opacity="0.23">
<path d="M58.5207 171.377C55.1748 171.374 51.9663 170.04 49.5966 167.667C47.2268 165.294 45.8885 162.076 45.874 158.715V40.5718C45.8794 37.2042 47.2136 33.976 49.5841 31.5947C51.9547 29.2135 55.1682 27.8732 58.5207 27.8678H285.64C288.992 27.8733 292.205 29.2137 294.575 31.5952C296.944 33.9766 298.277 37.2048 298.28 40.5718V158.715C298.277 162.081 296.944 165.308 294.574 167.689C292.204 170.069 288.992 171.408 285.64 171.412L58.5207 171.377Z" fill="#EFF1FA"/>
</g>
<g style="mix-blend-mode:multiply" opacity="0.26">
<path d="M58.6917 171.123C55.3828 171.118 52.211 169.795 49.8713 167.445C47.5315 165.094 46.2147 161.908 46.2092 158.584V40.6612C46.2147 37.3373 47.5315 34.1511 49.8713 31.8007C52.211 29.4504 55.3828 28.1275 58.6917 28.1221H285.463C288.772 28.1257 291.945 29.448 294.285 31.7987C296.625 34.1495 297.942 37.3367 297.945 40.6612V158.591C297.94 161.914 296.623 165.1 294.283 167.449C291.943 169.798 288.771 171.12 285.463 171.123H58.6917Z" fill="#ECEFFA"/>
</g>
<g style="mix-blend-mode:multiply" opacity="0.29">
<path d="M58.8696 170.869C55.6044 170.869 52.4729 169.566 50.1641 167.247C47.8552 164.927 46.5581 161.782 46.5581 158.502V40.7504C46.5581 37.4704 47.8552 34.3247 50.1641 32.0054C52.4729 29.686 55.6044 28.3831 58.8696 28.3831H285.264C288.529 28.3831 291.661 29.686 293.97 32.0054C296.279 34.3247 297.576 37.4704 297.576 40.7504V158.495C297.576 161.775 296.279 164.92 293.97 167.24C291.661 169.559 288.529 170.862 285.264 170.862L58.8696 170.869Z" fill="#EAEDF9"/>
</g>
<g style="mix-blend-mode:multiply" opacity="0.32">
<path d="M59.0475 170.615C55.8245 170.611 52.7344 169.324 50.4548 167.035C48.1751 164.746 46.8919 161.643 46.8865 158.405V40.8398C46.8919 37.6022 48.1751 34.4988 50.4548 32.2101C52.7344 29.9214 55.8245 28.6341 59.0475 28.6305H285.114C288.337 28.6359 291.426 29.925 293.705 32.215C295.983 34.505 297.264 37.6091 297.268 40.8467V158.405C297.263 161.642 295.98 164.744 293.702 167.033C291.424 169.321 288.336 170.609 285.114 170.615H59.0475Z" fill="#E8EBF9"/>
</g>
<g style="mix-blend-mode:multiply" opacity="0.35">
<path d="M59.2186 170.395C56.0403 170.389 52.9937 169.119 50.7463 166.861C48.4989 164.604 47.2339 161.543 47.2285 158.35V40.936C47.2249 37.7373 48.4859 34.6681 50.7342 32.4031C52.9826 30.1381 56.0343 28.8626 59.2186 28.8572H284.929C288.109 28.8626 291.158 30.1341 293.406 32.3929C295.655 34.6518 296.921 37.714 296.926 40.9085V158.316C296.928 161.514 295.666 164.582 293.418 166.847C291.171 169.112 288.12 170.388 284.936 170.395H59.2186Z" fill="#E5E9F8"/>
</g>
<g style="mix-blend-mode:multiply" opacity="0.39">
<path d="M59.3962 170.106C56.2596 170.101 53.2531 168.847 51.0352 166.619C48.8173 164.391 47.5689 161.371 47.5635 158.22V41.0253C47.5689 37.8745 48.8173 34.8543 51.0352 32.6264C53.2531 30.3984 56.2596 29.1444 59.3962 29.1389H284.758C287.895 29.1444 290.901 30.3984 293.119 32.6264C295.337 34.8543 296.585 37.8745 296.591 41.0253V158.22C296.587 161.371 295.339 164.393 293.121 166.621C290.903 168.849 287.895 170.103 284.758 170.106H59.3962Z" fill="#E3E7F7"/>
</g>
<g style="mix-blend-mode:multiply" opacity="0.42">
<path d="M59.5741 169.852C56.4769 169.852 53.5061 168.618 51.3135 166.421C49.1209 164.223 47.8854 161.242 47.8782 158.13V41.1146C47.8854 38.0033 49.1209 35.022 51.3135 32.8245C53.5061 30.6271 56.4769 29.3931 59.5741 29.3931H284.601C287.694 29.3985 290.659 30.6352 292.846 32.8322C295.033 35.0293 296.264 38.0075 296.269 41.1146V158.13C296.264 161.238 295.033 164.216 292.846 166.413C290.659 168.61 287.694 169.847 284.601 169.852H59.5741Z" fill="#E1E5F7"/>
</g>
<g style="mix-blend-mode:multiply" opacity="0.45">
<path d="M59.752 169.598C56.6989 169.594 53.7721 168.374 51.6139 166.204C49.4557 164.035 48.2425 161.094 48.2407 158.027V41.2246C48.2425 38.157 49.4555 35.2155 51.6135 33.0451C53.7715 30.8747 56.6983 29.6528 59.752 29.6473H284.409C287.463 29.6528 290.39 30.8747 292.548 33.0451C294.706 35.2155 295.919 38.157 295.921 41.2246V158.027C295.915 161.092 294.7 164.029 292.543 166.196C290.385 168.362 287.46 169.58 284.409 169.584L59.752 169.598Z" fill="#DEE3F6"/>
</g>
<g style="mix-blend-mode:multiply" opacity="0.48">
<path d="M59.9228 169.344C56.9126 169.342 54.0261 168.141 51.8963 166.004C49.7666 163.867 48.5674 160.969 48.562 157.945V41.3002C48.5674 38.2764 49.7666 35.3782 51.8963 33.2414C54.0261 31.1045 56.9126 29.9034 59.9228 29.9016H284.266C287.273 29.9071 290.156 31.1097 292.283 33.2462C294.41 35.3827 295.607 38.2788 295.613 41.3002V157.945C295.607 160.967 294.41 163.863 292.283 165.999C290.156 168.136 287.273 169.338 284.266 169.344H59.9228Z" fill="#DCE1F5"/>
</g>
<g style="mix-blend-mode:multiply" opacity="0.52">
<path d="M60.1007 169.089C57.1364 169.084 54.2952 167.899 52.1991 165.793C50.1031 163.688 48.9231 160.833 48.9177 157.856V41.3895C48.9231 38.4118 50.1031 35.5576 52.1991 33.4521C54.2952 31.3465 57.1364 30.1612 60.1007 30.1558H284.06C287.024 30.163 289.864 31.3489 291.96 33.4541C294.056 35.5592 295.236 38.4123 295.243 41.3895V157.856C295.238 160.833 294.058 163.688 291.962 165.793C289.866 167.899 287.025 169.084 284.06 169.089H60.1007Z" fill="#DADEF5"/>
</g>
<g style="mix-blend-mode:multiply" opacity="0.55">
<path d="M60.2786 168.835C57.356 168.832 54.5541 167.665 52.4862 165.59C50.4184 163.515 49.2533 160.702 49.2461 157.766V41.4857C49.2515 38.5487 50.4158 35.7337 52.4838 33.6576C54.5518 31.5815 57.3549 30.4137 60.2786 30.41H283.883C286.804 30.4173 289.604 31.5867 291.669 33.6625C293.734 35.7382 294.896 38.5511 294.901 41.4857V157.766C294.894 160.7 293.731 163.511 291.666 165.585C289.601 167.659 286.803 168.828 283.883 168.835H60.2786Z" fill="#D8DCF4"/>
</g>
<g style="mix-blend-mode:multiply" opacity="0.58">
<path d="M60.4496 168.581C57.5713 168.576 54.8125 167.424 52.7778 165.379C50.7431 163.334 49.5986 160.562 49.595 157.67V41.5543C49.604 38.6665 50.7509 35.8997 52.785 33.859C54.8191 31.8183 57.5748 30.6696 60.4496 30.6642H283.705C286.584 30.6696 289.343 31.8209 291.379 33.8659C293.415 35.9109 294.561 38.6829 294.566 41.575V157.691C294.561 160.583 293.415 163.355 291.379 165.4C289.343 167.445 286.584 168.596 283.705 168.602L60.4496 168.581Z" fill="#D5DAF3"/>
</g>
<g style="mix-blend-mode:multiply" opacity="0.61">
<path d="M60.6275 168.334C57.7909 168.328 55.0721 167.193 53.0669 165.178C51.0618 163.162 49.9338 160.43 49.9302 157.581V41.6643C49.9374 38.8166 51.0668 36.0875 53.0713 34.0739C55.0759 32.0602 57.7926 30.9257 60.6275 30.9185H283.534C286.368 30.9257 289.084 32.0604 291.088 34.0743C293.091 36.0882 294.219 38.8172 294.225 41.6643V157.581C294.223 160.43 293.096 163.162 291.092 165.177C289.088 167.193 286.37 168.328 283.534 168.334H60.6275Z" fill="#D3D8F3"/>
</g>
<g style="mix-blend-mode:multiply" opacity="0.65">
<path d="M283.356 31.1726H60.7983C54.981 31.1726 50.2651 35.9099 50.2651 41.7536V157.492C50.2651 163.335 54.981 168.073 60.7983 168.073H283.356C289.173 168.073 293.889 163.335 293.889 157.492V41.7536C293.889 35.9099 289.173 31.1726 283.356 31.1726Z" fill="#D1D6F2"/>
</g>
<g style="mix-blend-mode:multiply" opacity="0.68">
<path d="M283.178 31.4269H60.983C55.2526 31.4269 50.6072 36.0934 50.6072 41.8498V157.395C50.6072 163.152 55.2526 167.818 60.983 167.818H283.178C288.909 167.818 293.554 163.152 293.554 157.395V41.8498C293.554 36.0934 288.909 31.4269 283.178 31.4269Z" fill="#CED4F1"/>
</g>
<g style="mix-blend-mode:multiply" opacity="0.71">
<path d="M283 31.6812H61.1541C55.5143 31.6812 50.9424 36.2738 50.9424 41.9392V157.306C50.9424 162.972 55.5143 167.564 61.1541 167.564H283C288.64 167.564 293.212 162.972 293.212 157.306V41.9392C293.212 36.2738 288.64 31.6812 283 31.6812Z" fill="#CCD2F1"/>
</g>
<g style="mix-blend-mode:multiply" opacity="0.74">
<path d="M282.829 31.9353H61.332C55.7829 31.9353 51.2844 36.4542 51.2844 42.0284V157.217C51.2844 162.791 55.7829 167.31 61.332 167.31H282.829C288.379 167.31 292.877 162.791 292.877 157.217V42.0284C292.877 36.4542 288.379 31.9353 282.829 31.9353Z" fill="#CAD0F0"/>
</g>
<g style="mix-blend-mode:multiply" opacity="0.77">
<path d="M282.652 32.1896H61.503C56.0446 32.1896 51.6196 36.6346 51.6196 42.1178V157.128C51.6196 162.611 56.0446 167.056 61.503 167.056H282.652C288.11 167.056 292.535 162.611 292.535 157.128V42.1178C292.535 36.6346 288.11 32.1896 282.652 32.1896Z" fill="#C7CEF0"/>
</g>
<g style="mix-blend-mode:multiply" opacity="0.81">
<path d="M282.474 32.4437H61.6807C56.3091 32.4437 51.9546 36.818 51.9546 42.2139V157.031C51.9546 162.427 56.3091 166.801 61.6807 166.801H282.474C287.845 166.801 292.2 162.427 292.2 157.031V42.2139C292.2 36.818 287.845 32.4437 282.474 32.4437Z" fill="#C5CCEF"/>
</g>
<g style="mix-blend-mode:multiply" opacity="0.84">
<path d="M282.303 32.6979H61.8586C56.5777 32.6979 52.2966 36.9983 52.2966 42.3032V156.942C52.2966 162.247 56.5777 166.547 61.8586 166.547H282.303C287.584 166.547 291.865 162.247 291.865 156.942V42.3032C291.865 36.9983 287.584 32.6979 282.303 32.6979Z" fill="#C3CAEE"/>
</g>
<g style="mix-blend-mode:multiply" opacity="0.87">
<path d="M282.125 32.9521H62.0296C56.8394 32.9521 52.6318 37.1788 52.6318 42.3926V156.853C52.6318 162.066 56.8394 166.293 62.0296 166.293H282.125C287.315 166.293 291.523 162.066 291.523 156.853V42.3926C291.523 37.1788 287.315 32.9521 282.125 32.9521Z" fill="#C0C8EE"/>
</g>
<g style="mix-blend-mode:multiply" opacity="0.9">
<path d="M62.2414 33.2063H281.947C284.398 33.2063 286.748 34.1843 288.481 35.925C290.214 37.6658 291.187 40.0269 291.187 42.4887V156.756C291.187 159.216 290.215 161.576 288.483 163.315C286.751 165.055 284.403 166.032 281.954 166.032H62.2414C59.7925 166.032 57.4439 165.055 55.7123 163.315C53.9806 161.576 53.0078 159.216 53.0078 156.756V42.4887C53.0069 41.27 53.2451 40.0631 53.7087 38.937C54.1724 37.8108 54.8524 36.7875 55.7099 35.9255C56.5674 35.0634 57.5856 34.3796 58.7063 33.913C59.827 33.4464 61.0283 33.2063 62.2414 33.2063Z" fill="#BEC6ED"/>
</g>
<g style="mix-blend-mode:multiply" opacity="0.94">
<path d="M281.769 33.4607H62.3851C57.3724 33.4607 53.3088 37.5427 53.3088 42.5782V156.667C53.3088 161.703 57.3724 165.785 62.3851 165.785H281.769C286.782 165.785 290.845 161.703 290.845 156.667V42.5782C290.845 37.5427 286.782 33.4607 281.769 33.4607Z" fill="#BCC4EC"/>
</g>
<g style="mix-blend-mode:multiply" opacity="0.97">
<path d="M281.598 33.7148H62.563C57.641 33.7148 53.6509 37.7231 53.6509 42.6674V156.578C53.6509 161.522 57.641 165.53 62.563 165.53H281.598C286.52 165.53 290.51 161.522 290.51 156.578V42.6674C290.51 37.7231 286.52 33.7148 281.598 33.7148Z" fill="#B9C2EC"/>
</g>
<g style="mix-blend-mode:multiply" opacity="0.3">
<path d="M281.427 33.969H62.7341C57.9027 33.969 53.9861 37.9034 53.9861 42.7567V156.482C53.9861 161.335 57.9027 165.269 62.7341 165.269H281.427C286.259 165.269 290.175 161.335 290.175 156.482V42.7567C290.175 37.9034 286.259 33.969 281.427 33.969Z" fill="#B7C0EB"/>
</g>
</g>
<g style="mix-blend-mode:multiply" opacity="0.3">
<g style="mix-blend-mode:multiply" opacity="0.03">
<path d="M12.8039 186.768C13.4058 182.762 30.211 182.762 37.3174 182.762H305.633C315.277 182.762 331.282 182.46 331.282 186.06C331.544 187.093 331.673 188.155 331.665 189.221C331.527 190.309 331.166 191.358 330.605 192.299C329.558 194.656 318.437 194.656 309.402 196.098C305.045 196.785 31.7909 196.098 27.4067 196.098C17.2702 196.098 13.5631 193.886 12.5303 191.474C11.6274 189.372 12.243 188.946 12.8039 186.768Z" fill="#FDFDFE"/>
</g>
<g style="mix-blend-mode:multiply" opacity="0.06">
<path d="M13.4673 186.747C14.0486 182.865 31.0317 182.879 37.8988 182.879H305.024C314.347 182.879 330.584 182.591 330.584 186.074C331.084 187.022 331.347 188.079 331.35 189.152C331.302 190.3 330.475 191.213 329.934 192.189C328.922 194.463 317.513 194.47 308.731 195.858C304.525 196.545 31.8866 195.858 27.6187 195.858C17.7695 195.858 13.8093 193.749 12.8107 191.351C11.9762 189.235 12.6875 188.877 13.4673 186.747Z" fill="#FAFBFE"/>
</g>
<g style="mix-blend-mode:multiply" opacity="0.1">
<path d="M14.1309 186.727C14.6918 182.982 31.8526 182.989 38.4871 182.989L304.416 183.03C313.41 183.03 329.893 182.749 329.893 186.115C330.577 187.153 331.09 187.95 331.043 189.111C330.995 190.272 329.839 191.172 329.264 192.1C328.286 194.298 316.59 194.305 308.143 195.645C304.08 196.291 32.0578 195.645 27.9677 195.645C18.392 195.645 14.1788 193.639 13.2212 191.255C12.3594 189.104 13.1323 188.788 14.1309 186.727Z" fill="#F8F9FD"/>
</g>
<g style="mix-blend-mode:multiply" opacity="0.13">
<path d="M14.7942 186.706C15.3346 183.092 32.6733 183.106 39.0684 183.106L303.806 183.154C312.479 183.154 329.196 182.886 329.196 186.129C330.119 187.132 330.782 187.847 330.734 189.049C330.687 190.251 329.202 191.11 328.594 191.996C327.65 194.12 315.673 194.12 307.52 195.432C303.601 196.05 32.2013 195.432 28.2548 195.432C18.9733 195.432 14.4933 193.522 13.5836 191.158C12.7423 188.946 13.5768 188.692 14.7942 186.706Z" fill="#F6F7FC"/>
</g>
<g style="mix-blend-mode:multiply" opacity="0.16">
<path d="M15.4577 186.686C15.9775 183.209 33.4941 183.25 39.6498 183.25L303.198 183.312C311.549 183.312 328.505 183.058 328.505 186.177C329.654 187.146 330.468 187.771 330.42 189.015C330.372 190.258 328.573 191.035 327.924 191.921C327.014 193.982 314.75 193.982 306.905 195.212C303.13 195.81 32.345 195.212 28.5284 195.212C19.5342 195.212 14.7943 193.405 13.9188 191.055C13.1254 188.836 14.0214 188.596 15.4577 186.686Z" fill="#F3F5FC"/>
</g>
<g style="mix-blend-mode:multiply" opacity="0.19">
<path d="M16.1212 186.665C16.6205 183.319 34.3149 183.333 40.2381 183.333L302.589 183.408C310.619 183.408 327.807 183.168 327.807 186.156C329.175 187.091 330.153 187.634 330.112 188.905C330.071 190.176 327.937 190.911 327.253 191.77C326.378 193.728 313.827 193.735 306.283 194.93C302.651 195.508 32.4887 194.93 28.8363 194.93C20.1293 194.93 15.1568 193.226 14.3018 190.897C13.5084 188.699 14.4592 188.506 16.1212 186.665Z" fill="#F1F3FB"/>
</g>
<g style="mix-blend-mode:multiply" opacity="0.23">
<path d="M16.7847 186.644C17.2635 183.449 35.1357 183.449 40.8195 183.449L301.981 183.539C309.689 183.539 327.117 183.305 327.117 186.184C328.724 187.077 329.852 187.558 329.798 188.864C329.743 190.169 327.301 190.863 326.583 191.681C325.742 193.57 312.904 193.57 305.66 194.724C302.179 195.274 32.6323 194.724 29.1304 194.724C20.7038 194.724 15.4509 193.117 14.6575 190.801C13.8641 188.486 14.9038 188.41 16.7847 186.644Z" fill="#EFF1FA"/>
</g>
<g style="mix-blend-mode:multiply" opacity="0.26">
<path d="M17.4413 186.624C17.9064 183.552 35.9633 183.566 41.3803 183.566L301.344 183.662C308.731 183.662 326.391 183.442 326.391 186.205C328.238 187.057 329.503 187.428 329.462 188.802C329.421 190.176 326.638 190.794 325.885 191.55C325.085 193.357 311.96 193.364 305.017 194.463C301.679 194.992 32.7486 194.463 29.3766 194.463C21.2374 194.463 15.7314 192.952 15.0132 190.664C14.295 188.376 15.3484 188.314 17.4413 186.624Z" fill="#ECEFFA"/>
</g>
<g style="mix-blend-mode:multiply" opacity="0.29">
<path d="M18.1047 186.603C18.5493 183.662 36.784 183.676 41.989 183.676L300.763 183.793C307.828 183.793 325.728 183.58 325.728 186.218C327.78 187.043 329.216 187.324 329.148 188.74C329.079 190.155 326.008 190.725 325.215 191.488C324.449 193.213 311.036 193.219 304.395 194.271C301.201 194.779 32.8922 194.271 29.6775 194.271C21.8255 194.271 16.0597 192.862 15.3483 190.588C14.637 188.314 15.7929 188.259 18.1047 186.603Z" fill="#EAEDF9"/>
</g>
<g style="mix-blend-mode:multiply" opacity="0.32">
<path d="M18.7681 186.582C19.1922 183.779 37.6047 183.793 42.5772 183.793L300.154 183.917C306.898 183.917 325.03 183.717 325.03 186.239C327.335 187.022 328.908 187.221 328.867 188.678C328.826 190.135 325.4 190.65 324.572 191.371C323.84 193.02 310.14 193.02 303.807 194.03C300.756 194.511 33.0631 194.03 29.9989 194.03C22.4274 194.03 16.4084 192.718 15.7313 190.464C15.0541 188.211 16.2374 188.128 18.7681 186.582Z" fill="#E8EBF9"/>
</g>
<g style="mix-blend-mode:multiply" opacity="0.35">
<path d="M19.4315 186.562C19.8351 183.889 38.4254 183.91 43.1585 183.91L299.539 184.047C305.968 184.047 324.339 183.855 324.339 186.259C326.87 187.001 328.594 187.111 328.559 188.616C328.525 190.121 324.763 190.581 323.902 191.268C323.218 192.835 309.224 192.842 303.184 193.797C300.284 194.257 33.2067 193.797 30.2793 193.797C22.995 193.797 16.723 192.581 16.0869 190.361C15.4508 188.142 16.6819 188.032 19.4315 186.562Z" fill="#E5E9F8"/>
</g>
<g style="mix-blend-mode:multiply" opacity="0.39">
<path d="M20.095 186.541C20.478 184.006 39.2462 184.02 43.7467 184.02L298.93 184.171C305.038 184.171 323.642 183.992 323.642 186.273C326.378 186.96 328.279 187.008 328.245 188.554C328.211 190.1 324.141 190.513 323.231 191.158C322.547 192.649 308.3 192.656 302.562 193.563C299.826 194.003 33.3572 193.563 30.5803 193.563C23.5832 193.563 17.0513 192.45 16.4494 190.231C15.8133 187.888 17.0992 187.943 20.095 186.541Z" fill="#E3E7F7"/>
</g>
<g style="mix-blend-mode:multiply" opacity="0.42">
<path d="M20.7585 186.521C21.121 184.136 40.067 184.136 44.3282 184.136L298.321 184.301C304.108 184.301 322.944 184.136 322.944 186.294C325.933 186.981 327.965 186.905 327.93 188.493C327.93 190.196 323.491 190.444 322.554 191.055C321.925 192.471 307.37 192.471 301.939 193.336C299.327 193.749 33.4941 193.336 30.8608 193.336C24.151 193.336 17.366 192.313 16.8051 190.121C16.2033 187.75 17.5644 187.847 20.7585 186.521Z" fill="#E1E5F7"/>
</g>
<g style="mix-blend-mode:multiply" opacity="0.45">
<path d="M21.422 186.5C21.764 184.233 40.8878 184.253 44.9096 184.253L297.712 184.425C303.184 184.425 322.26 184.274 322.26 186.314C325.482 186.947 327.657 186.795 327.623 188.431C327.623 190.183 322.835 190.368 321.891 190.952C321.296 192.285 306.454 192.292 301.324 193.103C298.855 193.494 33.6446 193.103 31.1549 193.103C24.7256 193.103 17.6943 192.182 17.1608 190.004C16.5863 187.613 18.009 187.75 21.422 186.5Z" fill="#DEE3F6"/>
</g>
<g style="mix-blend-mode:multiply" opacity="0.48">
<path d="M22.0854 186.479C22.4068 184.343 41.7085 184.363 45.4977 184.363L297.104 184.556C302.247 184.556 321.563 184.411 321.563 186.328C325.017 186.926 327.342 186.692 327.315 188.389C327.315 190.19 322.226 190.32 321.221 190.87C320.667 192.12 305.537 192.127 300.701 192.89C298.376 193.261 33.7813 192.89 31.4421 192.89C25.2864 192.89 18.0157 192.058 17.5233 189.908C16.9761 187.482 18.4672 187.661 22.0854 186.479Z" fill="#DCE1F5"/>
</g>
<g style="mix-blend-mode:multiply" opacity="0.52">
<path d="M22.749 186.459C23.0431 184.459 42.5294 184.48 46.0793 184.48L296.495 184.679C301.317 184.679 320.872 184.549 320.872 186.349C324.552 186.905 327.028 186.589 327.028 188.307C326.993 190.162 321.611 190.231 320.571 190.739C320.051 191.921 304.634 191.921 300.106 192.642C297.931 192.986 33.9524 192.642 31.7637 192.642C25.9021 192.642 18.3647 191.914 17.9065 189.777C17.3593 187.345 18.8982 187.572 22.749 186.459Z" fill="#DADEF5"/>
</g>
<g style="mix-blend-mode:multiply" opacity="0.55">
<path d="M23.4055 186.438C23.6859 184.569 43.3501 184.59 46.6605 184.59L295.886 184.824C300.387 184.824 320.174 184.7 320.174 186.383C324.086 186.905 326.72 186.5 326.692 188.259C326.692 190.162 320.961 190.176 319.853 190.65C319.367 191.749 303.663 191.756 299.436 192.423C297.384 192.746 34.0549 192.423 32.003 192.423C26.4286 192.423 18.645 191.791 18.221 189.674C17.7832 187.208 19.3427 187.469 23.4055 186.438Z" fill="#D8DCF4"/>
</g>
<g style="mix-blend-mode:multiply" opacity="0.58">
<path d="M24.0691 186.418C24.329 184.686 44.171 184.707 47.2489 184.707L295.278 184.933C299.457 184.933 319.483 184.823 319.483 186.383C323.587 186.871 326.405 186.383 326.385 188.183C326.385 190.135 320.325 190.086 319.21 190.533C318.758 191.55 302.794 191.557 298.848 192.182C296.96 192.477 34.2192 192.182 32.3178 192.182C27.0375 192.182 18.994 191.646 18.6383 189.551C18.139 187.07 19.7874 187.379 24.0691 186.418Z" fill="#D5DAF3"/>
</g>
<g style="mix-blend-mode:multiply" opacity="0.61">
<path d="M24.7323 186.397C24.9717 184.823 44.9915 184.823 47.8369 184.823L294.669 185.064C298.526 185.064 318.785 184.961 318.785 186.404C323.156 186.85 326.09 186.273 326.07 188.121C326.07 190.128 319.688 190.018 318.546 190.43C318.129 191.371 301.857 191.371 298.232 191.948C296.495 192.223 34.3694 191.948 32.6185 191.948C27.6186 191.948 19.3289 191.509 18.939 189.434C18.5287 186.933 20.2317 187.283 24.7323 186.397Z" fill="#D3D8F3"/>
</g>
<g style="mix-blend-mode:multiply" opacity="0.65">
<path d="M25.3959 186.383C25.6147 184.913 45.8124 184.933 48.4184 184.933L294.06 185.188C297.596 185.188 318.095 185.098 318.095 186.424C322.698 186.83 325.783 186.17 325.762 188.06C325.762 190.121 319.052 189.949 317.869 190.327C317.486 191.186 300.927 191.186 297.61 191.701C296.009 191.955 34.5064 191.701 32.9127 191.701C28.2002 191.701 19.6573 191.357 19.3359 189.31C18.9187 186.795 20.6696 187.187 25.3959 186.383Z" fill="#D1D6F2"/>
</g>
<g style="mix-blend-mode:multiply" opacity="0.68">
<path d="M26.0594 186.363C26.2578 185.023 46.6333 185.05 49.0067 185.05L293.451 185.318C296.666 185.318 317.39 185.243 317.39 186.438C322.226 186.816 325.461 186.067 325.441 187.998C325.441 190.1 318.416 189.88 317.192 190.217C316.843 191.007 299.997 191.007 296.981 191.488C295.531 191.715 34.6433 191.488 33.1864 191.488C28.7543 191.488 19.9652 191.241 19.6711 189.207C19.3086 186.658 21.1143 187.098 26.0594 186.363Z" fill="#CED4F1"/>
</g>
<g style="mix-blend-mode:multiply" opacity="0.71">
<path d="M26.7227 186.342C26.9005 185.14 47.4539 185.167 49.5879 185.167L292.843 185.442C295.736 185.442 316.706 185.38 316.706 186.459C321.768 186.795 325.153 185.957 325.14 187.936C325.14 190.093 317.787 189.805 316.529 190.114C316.221 190.801 299.087 190.801 296.365 191.255C295.059 191.461 34.7936 191.255 33.4804 191.255C29.3355 191.255 20.3002 191.103 20.0403 189.097C19.6983 186.521 21.5587 187.002 26.7227 186.342Z" fill="#CCD2F1"/>
</g>
<g style="mix-blend-mode:multiply" opacity="0.74">
<path d="M27.3589 186.321C27.5162 185.249 48.2542 185.277 50.142 185.277L292.207 185.565C294.778 185.565 315.981 185.517 315.981 186.479C321.275 186.775 324.818 185.854 324.805 187.853C324.805 190.059 317.124 189.715 315.831 189.99C315.557 190.615 298.137 190.615 295.722 191C294.559 191.186 34.9099 191 33.7608 191C29.8964 191 20.6149 190.945 20.3823 188.939C20.0951 186.383 22.0034 186.885 27.3589 186.321Z" fill="#CAD0F0"/>
</g>
<g style="mix-blend-mode:multiply" opacity="0.77">
<path d="M28.0428 186.301C28.1796 185.366 49.0955 185.394 50.7507 185.394L291.618 185.696C293.869 185.696 315.311 185.655 315.311 186.493C320.831 186.754 324.524 185.751 324.511 187.812C324.511 190.066 316.515 189.667 315.181 189.873C314.942 190.423 297.234 190.423 295.12 190.76C294.108 190.918 35.0741 190.76 34.055 190.76C30.4778 190.76 20.95 190.801 20.7517 188.836C20.5191 186.246 22.4479 186.816 28.0428 186.301Z" fill="#C7CEF0"/>
</g>
<g style="mix-blend-mode:multiply" opacity="0.81">
<path d="M28.7267 186.28C28.8293 185.51 49.9298 185.51 51.3388 185.51L291.016 185.82C292.945 185.82 314.62 185.82 314.62 186.507C320.372 186.727 324.196 185.641 324.196 187.744C324.196 190.052 315.872 189.592 314.511 189.805C314.299 190.279 296.303 190.279 294.498 190.567C293.622 190.705 35.2176 190.567 34.3353 190.567C31.0522 190.567 21.2714 190.705 21.1004 188.76C20.8815 186.108 22.8924 186.72 28.7267 186.28Z" fill="#C5CCEF"/>
</g>
<g style="mix-blend-mode:multiply" opacity="0.84">
<path d="M29.3698 186.259C29.4723 185.572 50.7439 185.62 51.9408 185.62L290.421 185.95C292.029 185.95 313.943 185.95 313.943 186.534C319.928 186.72 323.922 185.538 323.909 187.695C323.909 190.045 315.263 189.523 313.868 189.695C313.69 190.086 295.401 190.086 293.903 190.327C293.178 190.444 35.3613 190.327 34.6774 190.327C31.6747 190.327 21.6819 190.567 21.5041 188.644C21.2784 185.971 23.3371 186.624 29.3698 186.259Z" fill="#C3CAEE"/>
</g>
<g style="mix-blend-mode:multiply" opacity="0.87">
<path d="M30.0332 186.239C30.1153 185.703 51.5646 185.737 52.5085 185.737L289.799 186.074C291.085 186.074 313.232 186.074 313.232 186.548C319.449 186.699 323.594 185.435 323.587 187.634C323.587 190.031 314.613 189.454 313.184 189.592C313.04 189.908 294.477 189.908 293.273 190.1C292.692 190.19 35.5186 190.1 34.9304 190.1C32.1945 190.1 21.935 190.43 21.8324 188.527C21.675 185.833 23.7748 186.534 30.0332 186.239Z" fill="#C0C8EE"/>
</g>
<g style="mix-blend-mode:multiply" opacity="0.9">
<path d="M30.6967 186.198C30.7582 185.799 52.3854 185.834 53.0968 185.834L289.19 186.184C290.155 186.184 312.541 186.184 312.541 186.548C318.984 186.658 323.279 185.311 323.279 187.551C323.279 190.004 313.984 189.365 312.514 189.468C312.404 189.702 293.554 189.702 292.678 189.846C292.241 189.915 35.6897 189.846 35.2519 189.846C32.817 189.846 22.3043 190.279 22.2154 188.389C22.0718 185.696 24.2195 186.438 30.6967 186.198Z" fill="#BEC6ED"/>
</g>
<g style="mix-blend-mode:multiply" opacity="0.94">
<path d="M31.3601 186.198C31.4012 185.93 53.2062 185.964 53.6782 185.964L288.581 186.328C289.224 186.328 311.837 186.328 311.837 186.589C318.512 186.658 322.965 185.215 322.958 187.51C322.958 190.011 313.341 189.317 311.837 189.379C311.761 189.537 292.631 189.537 292.001 189.633C291.714 189.681 35.7786 189.633 35.5119 189.633C33.3642 189.633 22.6053 190.162 22.5164 188.3C22.4685 185.559 24.6641 186.342 31.3601 186.198Z" fill="#BCC4EC"/>
</g>
<g style="mix-blend-mode:multiply" opacity="0.97">
<path d="M32.0237 186.198C32.0237 186.067 54.027 186.101 54.2664 186.101L287.973 186.479C288.294 186.479 311.153 186.479 311.153 186.624C318.054 186.665 322.657 185.14 322.657 187.469C322.657 190.025 312.712 189.262 311.173 189.296C311.139 189.379 291.714 189.379 291.413 189.427C291.27 189.427 35.9497 189.427 35.806 189.427C33.9388 189.427 22.9337 190.052 22.9063 188.204C22.8653 185.428 25.1087 186.253 32.0237 186.198Z" fill="#B9C2EC"/>
</g>
<g style="mix-blend-mode:multiply" opacity="0.3">
<path d="M310.455 186.624L32.6871 186.156C25.5533 186.156 23.2688 185.291 23.2688 188.073C23.2688 189.894 34.5133 189.173 36.0933 189.173H310.523C312.097 189.173 322.363 189.99 322.363 187.386C322.342 185.016 317.589 186.624 310.455 186.624Z" fill="#B7C0EB"/>
</g>
</g>
<path d="M328.238 185.833C328.238 187.53 326.474 188.54 324.818 188.54H18.4673C16.7779 188.54 15.4031 187.53 15.4031 185.833C15.4031 184.129 16.771 183.126 18.4673 183.126H325.174C326.87 183.126 328.238 184.129 328.238 185.833Z" fill="#FCFCFC"/>
<path d="M294.443 167.358V31.578L50.2036 31.578V167.358L294.443 167.358Z" fill="url(#paint0_linear_0_2458)"/>
<path d="M294.464 31.6331H50.1558V167.31H294.464V31.6331Z" fill="url(#paint1_linear_0_2458)"/>
<path d="M122.431 101.241L150.836 121.97C153.547 118.223 155.497 113.976 156.573 109.473C157.65 104.969 157.833 100.296 157.111 95.7211C156.39 91.1463 154.778 86.7591 152.368 82.8101C149.958 78.8612 146.797 75.4279 143.066 72.7064C137.12 68.2277 129.863 65.855 122.431 65.9594V101.241Z" fill="#26D2AA"/>
<path d="M117.301 99.7016V64.4271C111.748 64.3419 106.259 65.6221 101.312 68.1561C96.3643 70.6901 92.1089 74.4011 88.9163 78.9656L117.301 99.7016Z" fill="#E15364"/>
<path d="M120.215 105.686L91.8096 84.9569C89.0641 88.7024 87.083 92.9564 85.9806 97.474C84.8781 101.992 84.6759 106.684 85.3857 111.28C86.0955 115.876 87.7033 120.286 90.1164 124.256C92.5295 128.226 95.7004 131.677 99.4466 134.411C103.193 137.145 107.44 139.108 111.944 140.186C116.448 141.264 121.12 141.437 125.691 140.695C130.262 139.952 134.642 138.309 138.578 135.859C142.515 133.41 145.93 130.203 148.627 126.422L120.215 105.686Z" fill="#FFCF26"/>
<path d="M199.959 56.4089C199.959 57.4512 199.652 58.4701 199.075 59.3367C198.499 60.2033 197.679 60.8788 196.721 61.2777C195.762 61.6765 194.707 61.7809 193.69 61.5775C192.672 61.3742 191.737 60.8723 191.004 60.1353C190.27 59.3983 189.77 58.4593 189.568 57.437C189.365 56.4148 189.469 55.3552 189.866 54.3922C190.263 53.4293 190.936 52.6062 191.799 52.0272C192.661 51.4481 193.676 51.139 194.713 51.139C195.402 51.1381 196.085 51.2738 196.722 51.5383C197.359 51.8029 197.937 52.191 198.425 52.6805C198.912 53.1701 199.298 53.7514 199.562 54.3912C199.825 55.0309 199.96 55.7166 199.959 56.4089Z" fill="#BAF1E1"/>
<path d="M218.303 56.4089C218.303 57.8195 217.887 59.1984 217.107 60.3712C216.327 61.544 215.218 62.4581 213.921 62.9979C212.623 63.5377 211.196 63.6789 209.819 63.4038C208.441 63.1286 207.176 62.4493 206.183 61.4519C205.191 60.4545 204.514 59.1837 204.24 57.8003C203.966 56.4169 204.107 54.9829 204.644 53.6797C205.182 52.3765 206.092 51.2627 207.259 50.479C208.427 49.6954 209.799 49.2771 211.204 49.2771C213.087 49.2771 214.892 50.0285 216.224 51.366C217.555 52.7034 218.303 54.5175 218.303 56.4089Z" fill="#FF4442"/>
<path d="M247.735 56.4089C247.735 57.4892 247.416 58.5453 246.818 59.4436C246.221 60.3418 245.371 61.042 244.378 61.4554C243.384 61.8688 242.291 61.977 241.236 61.7662C240.181 61.5554 239.212 61.0352 238.452 60.2713C237.692 59.5074 237.174 58.5341 236.964 57.4745C236.754 56.415 236.862 55.3167 237.273 54.3186C237.685 53.3205 238.382 52.4674 239.276 51.8672C240.17 51.267 241.221 50.9467 242.297 50.9467C243.736 50.9557 245.114 51.534 246.132 52.5565C247.15 53.5789 247.726 54.963 247.735 56.4089Z" fill="#FFCF26"/>
<path d="M231.593 56.4089C231.593 57.212 231.356 57.9971 230.912 58.6648C230.467 59.3326 229.836 59.8531 229.097 60.1604C228.359 60.4677 227.546 60.5482 226.762 60.3915C225.978 60.2348 225.258 59.8481 224.692 59.2802C224.127 58.7123 223.742 57.9887 223.586 57.2011C223.43 56.4134 223.51 55.5969 223.816 54.855C224.122 54.113 224.64 53.4788 225.305 53.0326C225.97 52.5864 226.751 52.3483 227.551 52.3483C228.622 52.3501 229.649 52.7785 230.407 53.5396C231.165 54.3007 231.591 55.3325 231.593 56.4089Z" fill="#2CBA8F"/>
<path d="M260.593 56.4089C260.593 57.2123 260.356 57.9976 259.912 58.6656C259.467 59.3335 258.835 59.8539 258.096 60.1611C257.357 60.4682 256.544 60.5482 255.76 60.391C254.976 60.2337 254.255 59.8463 253.69 59.2777C253.125 58.7092 252.741 57.985 252.586 57.1969C252.43 56.4087 252.511 55.5921 252.818 54.8502C253.125 54.1083 253.645 53.4746 254.31 53.0293C254.976 52.5839 255.758 52.3469 256.558 52.3483C257.629 52.3501 258.655 52.7787 259.412 53.54C260.168 54.3013 260.593 55.3331 260.593 56.4089Z" fill="#BAF1E1"/>
<path d="M256.667 60.4696H256.496V73.4072H256.667V60.4696Z" fill="#2CBA8F"/>
<path d="M256.777 73.4003C256.768 73.4459 256.744 73.4871 256.708 73.5168C256.673 73.5465 256.628 73.5627 256.582 73.5627C256.536 73.5627 256.491 73.5465 256.455 73.5168C256.42 73.4871 256.396 73.4459 256.387 73.4003C256.382 73.3715 256.383 73.3419 256.39 73.3135C256.397 73.2852 256.411 73.2588 256.429 73.2362C256.448 73.2137 256.471 73.1955 256.498 73.1831C256.524 73.1706 256.553 73.1642 256.582 73.1642C256.611 73.1642 256.64 73.1706 256.666 73.1831C256.693 73.1955 256.716 73.2137 256.735 73.2362C256.753 73.2588 256.767 73.2852 256.774 73.3135C256.781 73.3419 256.782 73.3715 256.777 73.4003Z" fill="#2CBA8F"/>
<path d="M242.379 61.8712H242.208V73.4072H242.379V61.8712Z" fill="#2CBA8F"/>
<path d="M242.496 73.4003C242.494 73.452 242.472 73.5009 242.435 73.5368C242.398 73.5727 242.349 73.5927 242.297 73.5927C242.252 73.5841 242.211 73.5598 242.181 73.5241C242.152 73.4883 242.135 73.4433 242.135 73.3969C242.135 73.3504 242.152 73.3054 242.181 73.2697C242.211 73.2339 242.252 73.2096 242.297 73.201C242.35 73.201 242.4 73.222 242.437 73.2594C242.475 73.2968 242.496 73.3475 242.496 73.4003Z" fill="#2CBA8F"/>
<path d="M227.633 60.4215H227.462V73.4073H227.633V60.4215Z" fill="#2CBA8F"/>
<path d="M227.763 73.4003C227.754 73.4459 227.73 73.4871 227.694 73.5168C227.659 73.5465 227.614 73.5627 227.568 73.5627C227.521 73.5627 227.477 73.5465 227.441 73.5168C227.406 73.4871 227.381 73.4459 227.373 73.4003C227.367 73.3715 227.368 73.3419 227.376 73.3135C227.383 73.2852 227.396 73.2588 227.415 73.2362C227.434 73.2137 227.457 73.1955 227.483 73.1831C227.51 73.1706 227.539 73.1642 227.568 73.1642C227.597 73.1642 227.626 73.1706 227.652 73.1831C227.678 73.1955 227.702 73.2137 227.72 73.2362C227.739 73.2588 227.752 73.2852 227.76 73.3135C227.767 73.3419 227.768 73.3715 227.763 73.4003Z" fill="#2CBA8F"/>
<path d="M211.286 63.5408H211.115V73.4072H211.286V63.5408Z" fill="#2CBA8F"/>
<path d="M211.402 73.4003C211.402 73.4397 211.39 73.4782 211.369 73.511C211.347 73.5438 211.316 73.5693 211.28 73.5844C211.243 73.5995 211.204 73.6034 211.165 73.5957C211.127 73.588 211.091 73.5691 211.063 73.5412C211.036 73.5133 211.017 73.4778 211.009 73.4392C211.002 73.4005 211.005 73.3605 211.02 73.3241C211.035 73.2876 211.061 73.2565 211.094 73.2346C211.126 73.2127 211.165 73.201 211.204 73.201C211.23 73.201 211.256 73.2062 211.28 73.2162C211.304 73.2262 211.326 73.2409 211.344 73.2594C211.362 73.2779 211.377 73.2999 211.387 73.3241C211.397 73.3482 211.402 73.3741 211.402 73.4003Z" fill="#2CBA8F"/>
<path d="M194.802 61.672H194.631V73.4072H194.802V61.672Z" fill="#2CBA8F"/>
<path d="M194.932 73.4003C194.932 73.4397 194.92 73.4782 194.899 73.511C194.877 73.5438 194.846 73.5693 194.81 73.5844C194.773 73.5995 194.734 73.6034 194.695 73.5957C194.657 73.588 194.621 73.5691 194.594 73.5412C194.566 73.5133 194.547 73.4778 194.539 73.4392C194.532 73.4005 194.535 73.3605 194.551 73.3241C194.566 73.2876 194.591 73.2565 194.624 73.2346C194.656 73.2127 194.695 73.201 194.734 73.201C194.76 73.201 194.786 73.2062 194.81 73.2162C194.834 73.2262 194.856 73.2409 194.874 73.2594C194.892 73.2779 194.907 73.2999 194.917 73.3241C194.927 73.3482 194.932 73.3741 194.932 73.4003Z" fill="#2CBA8F"/>
<path d="M191.786 79.1993C192.764 78.4092 193.42 77.8251 193.42 77.2892C193.421 77.2026 193.404 77.1168 193.368 77.0378C193.333 76.9588 193.281 76.8884 193.216 76.8315C193.151 76.7747 193.074 76.7327 192.991 76.7085C192.909 76.6843 192.822 76.6785 192.736 76.6915C192.585 76.6863 192.434 76.7179 192.297 76.7837C192.16 76.8495 192.041 76.9475 191.95 77.0694L191.779 76.9113C191.893 76.7675 192.039 76.6523 192.205 76.5748C192.371 76.4973 192.553 76.4596 192.736 76.4647C192.851 76.4543 192.966 76.4678 193.076 76.5043C193.185 76.5409 193.285 76.5998 193.371 76.6772C193.456 76.7546 193.525 76.849 193.572 76.9543C193.619 77.0596 193.645 77.1736 193.646 77.2892C193.646 77.9213 192.962 78.4985 192.141 79.1787H193.66V79.4054H191.786V79.1993Z" fill="white"/>
<path d="M194.303 79.1993C195.281 78.4092 195.937 77.8251 195.937 77.2892C195.938 77.2026 195.921 77.1168 195.885 77.0378C195.85 76.9588 195.798 76.8884 195.733 76.8315C195.668 76.7747 195.591 76.7327 195.509 76.7085C195.426 76.6843 195.339 76.6785 195.253 76.6915C195.102 76.6857 194.951 76.7171 194.814 76.7829C194.677 76.8487 194.558 76.947 194.467 77.0694L194.296 76.9113C194.41 76.7675 194.556 76.6523 194.722 76.5748C194.889 76.4973 195.07 76.4596 195.253 76.4647C195.368 76.4543 195.484 76.4678 195.593 76.5043C195.702 76.5409 195.802 76.5998 195.888 76.6772C195.973 76.7546 196.042 76.849 196.089 76.9543C196.137 77.0596 196.162 77.1736 196.163 77.2892C196.163 77.9213 195.479 78.4985 194.658 79.1787H196.177V79.4054H194.275L194.303 79.1993Z" fill="white"/>
<path d="M197.394 76.4647C197.582 76.4647 197.762 76.5396 197.895 76.673C198.028 76.8064 198.102 76.9872 198.102 77.1758C198.102 77.3644 198.028 77.5453 197.895 77.6787C197.762 77.812 197.582 77.887 197.394 77.887C197.207 77.887 197.027 77.812 196.894 77.6787C196.761 77.5453 196.687 77.3644 196.687 77.1758C196.687 76.9872 196.761 76.8064 196.894 76.673C197.027 76.5396 197.207 76.4647 197.394 76.4647ZM197.394 76.6365C197.284 76.6225 197.172 76.6427 197.073 76.6943C196.975 76.7459 196.894 76.8265 196.842 76.9253C196.79 77.0242 196.769 77.1366 196.783 77.2475C196.796 77.3585 196.843 77.4627 196.917 77.5464C196.99 77.63 197.088 77.6891 197.196 77.7157C197.304 77.7423 197.417 77.7352 197.521 77.6953C197.625 77.6554 197.715 77.5847 197.777 77.4925C197.84 77.4003 197.874 77.291 197.873 77.1793C197.88 77.1115 197.872 77.0431 197.852 76.9784C197.831 76.9136 197.797 76.8539 197.752 76.803C197.707 76.752 197.652 76.7109 197.59 76.6823C197.529 76.6537 197.462 76.6381 197.394 76.6365ZM198.968 76.5128H199.166L197.319 79.4054H197.128L198.968 76.5128ZM198.865 78.0312C199 78.0312 199.132 78.0715 199.245 78.147C199.357 78.2225 199.445 78.3298 199.497 78.4554C199.549 78.5809 199.562 78.7191 199.536 78.8524C199.509 78.9856 199.444 79.1081 199.349 79.2041C199.253 79.3002 199.131 79.3657 198.998 79.3922C198.866 79.4187 198.728 79.4051 198.603 79.3531C198.478 79.3011 198.371 79.213 198.296 79.1C198.221 78.987 198.181 78.8542 198.181 78.7183C198.181 78.5361 198.253 78.3613 198.381 78.2325C198.51 78.1036 198.684 78.0312 198.865 78.0312ZM198.865 78.2099C198.798 78.2115 198.732 78.2269 198.671 78.2551C198.61 78.2834 198.555 78.3238 198.51 78.374C198.466 78.4242 198.431 78.4831 198.41 78.547C198.389 78.6109 198.381 78.6786 198.386 78.7458C198.381 78.8133 198.389 78.8813 198.41 78.9456C198.431 79.01 198.465 79.0693 198.51 79.12C198.555 79.1707 198.609 79.2118 198.67 79.2408C198.731 79.2698 198.798 79.286 198.865 79.2886C198.932 79.2861 198.998 79.2698 199.059 79.2408C199.119 79.2117 199.173 79.1705 199.218 79.1197C199.262 79.0688 199.295 79.0094 199.316 78.9451C199.336 78.8808 199.343 78.813 199.337 78.7458C199.342 78.6792 199.335 78.6121 199.314 78.5486C199.293 78.4851 199.259 78.4265 199.215 78.3764C199.171 78.3264 199.117 78.2858 199.057 78.2571C198.997 78.2285 198.931 78.2124 198.865 78.2099Z" fill="white"/>
<path d="M208.228 78.8282C208.32 78.9568 208.441 79.0609 208.582 79.1316C208.722 79.2022 208.878 79.2372 209.035 79.2336C209.48 79.2336 209.76 79 209.76 78.6152C209.76 78.2304 209.418 78.0312 208.988 78.0312H208.721V77.7976H208.988C209.371 77.7976 209.719 77.6327 209.719 77.2479C209.719 76.8632 209.398 76.6845 209.035 76.6845C208.887 76.6829 208.74 76.7155 208.606 76.7798C208.472 76.8441 208.355 76.9385 208.263 77.0555L208.105 76.8975C208.218 76.7577 208.361 76.6455 208.523 76.5694C208.686 76.4932 208.863 76.455 209.042 76.4578C209.548 76.4578 209.973 76.7326 209.973 77.2204C209.973 77.3914 209.911 77.5565 209.797 77.6835C209.683 77.8106 209.526 77.8904 209.357 77.9075C209.535 77.9189 209.702 77.9949 209.828 78.1214C209.954 78.2478 210.03 78.4161 210.041 78.5946C210.041 79.0687 209.678 79.4191 209.063 79.4191C208.873 79.4277 208.684 79.3881 208.513 79.3041C208.342 79.22 208.195 79.0942 208.085 78.9381L208.228 78.8282Z" fill="white"/>
<path d="M211.621 76.4647C211.771 76.4575 211.921 76.4875 212.057 76.5522C212.193 76.617 212.311 76.7143 212.401 76.8357L212.257 77.0143C212.187 76.9105 212.092 76.8263 211.981 76.7698C211.869 76.7133 211.746 76.6863 211.621 76.6914C210.999 76.6914 210.773 77.3441 210.773 77.9625C210.77 78.0082 210.77 78.0542 210.773 78.0999C210.865 77.9584 210.989 77.841 211.136 77.7574C211.282 77.6737 211.446 77.6263 211.614 77.619C211.737 77.6077 211.861 77.6235 211.978 77.6652C212.095 77.7068 212.201 77.7734 212.289 77.8603C212.378 77.9471 212.446 78.0523 212.49 78.1684C212.534 78.2845 212.553 78.4088 212.544 78.5328C212.545 78.6584 212.519 78.7828 212.47 78.8983C212.42 79.0137 212.348 79.1178 212.257 79.204C212.166 79.2903 212.058 79.3569 211.941 79.3998C211.823 79.4427 211.698 79.461 211.573 79.4535C210.793 79.4535 210.513 78.7664 210.513 77.9625C210.513 77.1586 210.828 76.4647 211.621 76.4647ZM211.573 77.8388C211.411 77.8469 211.253 77.8966 211.116 77.9832C210.978 78.0698 210.865 78.1904 210.787 78.3335C210.828 78.7252 211.033 79.2336 211.573 79.2336C211.666 79.2392 211.76 79.2256 211.847 79.1936C211.935 79.1616 212.016 79.1119 212.083 79.0475C212.151 78.9832 212.205 78.9055 212.242 78.8193C212.279 78.7332 212.298 78.6403 212.298 78.5465C212.301 78.451 212.284 78.3559 212.249 78.2673C212.213 78.1787 212.159 78.0985 212.091 78.0319C212.023 77.9653 211.942 77.9137 211.852 77.8805C211.763 77.8472 211.668 77.833 211.573 77.8388Z" fill="white"/>
<path d="M213.618 76.4647C213.754 76.4647 213.886 76.505 213.998 76.5805C214.111 76.656 214.198 76.7633 214.25 76.8889C214.302 77.0144 214.316 77.1526 214.289 77.2858C214.263 77.4191 214.198 77.5415 214.102 77.6376C214.006 77.7337 213.884 77.7992 213.752 77.8257C213.619 77.8522 213.482 77.8386 213.357 77.7866C213.232 77.7346 213.125 77.6465 213.05 77.5335C212.974 77.4205 212.934 77.2877 212.934 77.1518C212.934 76.9696 213.006 76.7948 213.135 76.666C213.263 76.5371 213.437 76.4647 213.618 76.4647ZM213.618 76.6365C213.508 76.6225 213.396 76.6427 213.297 76.6943C213.199 76.7459 213.118 76.8265 213.066 76.9253C213.014 77.0242 212.993 77.1366 213.007 77.2475C213.02 77.3585 213.067 77.4627 213.14 77.5464C213.214 77.63 213.312 77.6891 213.42 77.7157C213.528 77.7423 213.641 77.7352 213.745 77.6953C213.849 77.6554 213.938 77.5847 214.001 77.4925C214.064 77.4003 214.098 77.291 214.097 77.1793C214.103 77.1117 214.095 77.0437 214.073 76.9794C214.052 76.9151 214.018 76.8558 213.973 76.8051C213.928 76.7543 213.874 76.7132 213.813 76.6843C213.752 76.6553 213.686 76.639 213.618 76.6365ZM215.191 76.5128H215.39L213.543 79.4054H213.352L215.191 76.5128ZM215.082 78.0312C215.27 78.0312 215.45 78.1062 215.583 78.2395C215.715 78.3729 215.79 78.5538 215.79 78.7424C215.79 78.931 215.715 79.1118 215.583 79.2452C215.45 79.3786 215.27 79.4535 215.082 79.4535C214.894 79.4535 214.714 79.3786 214.581 79.2452C214.449 79.1118 214.374 78.931 214.374 78.7424C214.374 78.5538 214.449 78.3729 214.581 78.2395C214.714 78.1062 214.894 78.0312 215.082 78.0312ZM215.082 78.2099C215.015 78.2125 214.95 78.2285 214.889 78.2571C214.829 78.2856 214.774 78.3261 214.73 78.3761C214.685 78.4261 214.651 78.4845 214.629 78.548C214.607 78.6116 214.599 78.6788 214.603 78.7458C214.591 78.8158 214.595 78.8875 214.614 78.9559C214.632 79.0244 214.665 79.0879 214.711 79.1422C214.757 79.1964 214.813 79.24 214.877 79.2698C214.942 79.2997 215.011 79.3152 215.082 79.3152C215.153 79.3152 215.222 79.2997 215.287 79.2698C215.351 79.24 215.407 79.1964 215.453 79.1422C215.499 79.0879 215.532 79.0244 215.55 78.9559C215.569 78.8875 215.573 78.8158 215.561 78.7458C215.566 78.6786 215.558 78.6109 215.537 78.547C215.516 78.4831 215.481 78.4242 215.437 78.374C215.392 78.3238 215.337 78.2834 215.276 78.2551C215.215 78.2269 215.149 78.2115 215.082 78.2099Z" fill="white"/>
<path d="M225.369 76.8495L224.91 77.3442L224.753 77.1793L225.389 76.4922H225.615V79.3848H225.369V76.8495Z" fill="white"/>
<path d="M226.456 78.8214C226.545 78.9535 226.665 79.0607 226.807 79.1329C226.948 79.205 227.105 79.2397 227.263 79.2337C227.357 79.2393 227.45 79.2257 227.538 79.1937C227.626 79.1617 227.706 79.112 227.774 79.0476C227.842 78.9833 227.896 78.9056 227.933 78.8194C227.97 78.7333 227.989 78.6404 227.988 78.5466C227.989 78.4534 227.97 78.3612 227.933 78.2755C227.897 78.1898 227.843 78.1125 227.776 78.0482C227.709 77.984 227.63 77.9341 227.543 77.9016C227.456 77.8692 227.363 77.8549 227.27 77.8595C227.015 77.8621 226.77 77.9629 226.586 78.1412L226.395 78.0657V76.5472H228.064V76.7671H226.648V77.9008C226.833 77.7262 227.078 77.6302 227.332 77.6328C227.455 77.6269 227.577 77.6469 227.692 77.6914C227.807 77.736 227.911 77.8041 227.998 77.8914C228.085 77.9787 228.152 78.0834 228.197 78.1986C228.241 78.3138 228.261 78.437 228.255 78.5604C228.255 78.6869 228.23 78.8122 228.18 78.9285C228.13 79.0448 228.057 79.1496 227.966 79.2365C227.874 79.3233 227.766 79.3905 227.647 79.4337C227.529 79.477 227.403 79.4954 227.277 79.4879C227.089 79.5021 226.9 79.4665 226.729 79.3845C226.559 79.3025 226.413 79.1771 226.306 79.0207L226.456 78.8214Z" fill="white"/>
<path d="M229.308 76.4647C229.496 76.4647 229.676 76.5396 229.809 76.673C229.942 76.8064 230.016 76.9872 230.016 77.1758C230.016 77.3644 229.942 77.5453 229.809 77.6787C229.676 77.812 229.496 77.887 229.308 77.887C229.121 77.887 228.941 77.812 228.808 77.6787C228.675 77.5453 228.601 77.3644 228.601 77.1758C228.601 76.9872 228.675 76.8064 228.808 76.673C228.941 76.5396 229.121 76.4647 229.308 76.4647ZM229.308 76.6365C229.198 76.6225 229.086 76.6427 228.987 76.6943C228.889 76.7459 228.808 76.8265 228.756 76.9253C228.704 77.0242 228.684 77.1366 228.697 77.2475C228.71 77.3585 228.757 77.4627 228.831 77.5464C228.904 77.63 229.002 77.6891 229.11 77.7157C229.218 77.7423 229.331 77.7352 229.435 77.6953C229.539 77.6554 229.629 77.5847 229.691 77.4925C229.754 77.4003 229.788 77.291 229.787 77.1793C229.794 77.1115 229.786 77.0431 229.766 76.9784C229.745 76.9136 229.711 76.8539 229.666 76.803C229.621 76.752 229.566 76.7109 229.504 76.6823C229.443 76.6537 229.376 76.6381 229.308 76.6365ZM230.882 76.5128H231.08L229.24 79.4054H229.042L230.882 76.5128ZM230.779 78.0312C230.914 78.0312 231.047 78.0715 231.159 78.147C231.271 78.2225 231.359 78.3298 231.411 78.4554C231.463 78.5809 231.476 78.7191 231.45 78.8524C231.423 78.9856 231.358 79.1081 231.263 79.2041C231.167 79.3002 231.045 79.3657 230.912 79.3922C230.78 79.4187 230.642 79.4051 230.517 79.3531C230.392 79.3011 230.285 79.213 230.21 79.1C230.135 78.987 230.095 78.8542 230.095 78.7183C230.095 78.5361 230.167 78.3613 230.295 78.2325C230.424 78.1036 230.598 78.0312 230.779 78.0312ZM230.779 78.2099C230.712 78.2115 230.646 78.2269 230.585 78.2551C230.524 78.2834 230.469 78.3238 230.424 78.374C230.38 78.4242 230.345 78.4831 230.324 78.547C230.303 78.6109 230.295 78.6786 230.3 78.7458C230.288 78.8158 230.292 78.8875 230.311 78.9559C230.329 79.0244 230.362 79.0879 230.408 79.1422C230.454 79.1964 230.51 79.2399 230.575 79.2698C230.639 79.2997 230.708 79.3152 230.779 79.3152C230.85 79.3152 230.919 79.2997 230.984 79.2698C231.048 79.2399 231.104 79.1964 231.15 79.1422C231.196 79.0879 231.229 79.0244 231.247 78.9559C231.266 78.8875 231.27 78.8158 231.258 78.7458C231.263 78.6786 231.255 78.6109 231.234 78.547C231.213 78.4831 231.178 78.4242 231.134 78.374C231.089 78.3238 231.034 78.2834 230.973 78.2551C230.912 78.2269 230.846 78.2115 230.779 78.2099Z" fill="white"/>
<path d="M254.896 76.8495L254.438 77.3442L254.28 77.1793L254.916 76.4922H255.122V79.3848H254.875L254.896 76.8495Z" fill="white"/>
<path d="M257.242 76.7327H255.648V76.5128H257.529V76.6846L256.305 79.4329H256.031L257.242 76.7327Z" fill="white"/>
<path d="M258.494 76.4647C258.629 76.4647 258.761 76.505 258.874 76.5805C258.986 76.656 259.074 76.7633 259.125 76.8889C259.177 77.0144 259.191 77.1526 259.164 77.2858C259.138 77.4191 259.073 77.5415 258.977 77.6376C258.882 77.7337 258.76 77.7991 258.627 77.8257C258.494 77.8522 258.357 77.8386 258.232 77.7866C258.107 77.7346 258 77.6465 257.925 77.5335C257.85 77.4205 257.81 77.2877 257.81 77.1518C257.81 76.9696 257.882 76.7948 258.01 76.666C258.138 76.5371 258.312 76.4647 258.494 76.4647ZM258.494 76.6365C258.383 76.6225 258.271 76.6427 258.172 76.6943C258.074 76.7459 257.993 76.8265 257.941 76.9253C257.889 77.0242 257.869 77.1366 257.882 77.2475C257.895 77.3585 257.942 77.4627 258.016 77.5464C258.089 77.63 258.187 77.6891 258.295 77.7157C258.403 77.7423 258.516 77.7352 258.62 77.6953C258.724 77.6554 258.814 77.5847 258.877 77.4925C258.939 77.4003 258.973 77.291 258.972 77.1793C258.978 77.1117 258.97 77.0437 258.949 76.9794C258.927 76.9151 258.893 76.8558 258.848 76.8051C258.804 76.7543 258.749 76.7132 258.688 76.6843C258.627 76.6553 258.561 76.639 258.494 76.6365ZM260.067 76.5128H260.265L258.418 79.4054H258.227L260.067 76.5128ZM259.964 78.0312C260.099 78.0312 260.232 78.0715 260.344 78.147C260.457 78.2225 260.544 78.3298 260.596 78.4554C260.648 78.5809 260.661 78.7191 260.635 78.8524C260.609 78.9856 260.543 79.1081 260.448 79.2041C260.352 79.3002 260.23 79.3657 260.098 79.3922C259.965 79.4187 259.827 79.4051 259.702 79.3531C259.577 79.3011 259.471 79.213 259.395 79.1C259.32 78.987 259.28 78.8542 259.28 78.7183C259.28 78.5361 259.352 78.3613 259.48 78.2325C259.609 78.1036 259.783 78.0312 259.964 78.0312ZM259.964 78.2099C259.897 78.2115 259.831 78.2269 259.77 78.2551C259.709 78.2834 259.654 78.3238 259.61 78.374C259.565 78.4242 259.531 78.4831 259.509 78.547C259.488 78.6109 259.48 78.6786 259.485 78.7458C259.477 78.8133 259.483 78.8818 259.504 78.9467C259.524 79.0116 259.558 79.0715 259.602 79.1223C259.647 79.1732 259.703 79.2139 259.764 79.2418C259.826 79.2697 259.893 79.2841 259.961 79.2841C260.028 79.2841 260.095 79.2697 260.157 79.2418C260.219 79.2139 260.274 79.1732 260.319 79.1223C260.364 79.0715 260.397 79.0116 260.418 78.9467C260.438 78.8818 260.444 78.8133 260.436 78.7458C260.442 78.6792 260.434 78.6121 260.413 78.5486C260.392 78.4851 260.358 78.4265 260.314 78.3764C260.27 78.3264 260.216 78.2858 260.156 78.2571C260.096 78.2285 260.031 78.2124 259.964 78.2099Z" fill="white"/>
<path d="M238.905 79.1993C239.889 78.4091 240.546 77.8251 240.546 77.2892C240.547 77.2026 240.529 77.1168 240.494 77.0378C240.459 76.9588 240.407 76.8884 240.342 76.8315C240.277 76.7747 240.2 76.7327 240.117 76.7085C240.034 76.6843 239.947 76.6785 239.862 76.6915C239.709 76.6858 239.557 76.7171 239.419 76.7829C239.281 76.8487 239.161 76.9469 239.069 77.0694L238.898 76.9113C239.013 76.7666 239.16 76.6508 239.327 76.5733C239.495 76.4957 239.678 76.4586 239.862 76.4647C239.976 76.4553 240.091 76.4695 240.199 76.5066C240.308 76.5436 240.407 76.6026 240.492 76.6799C240.577 76.7572 240.644 76.8512 240.691 76.956C240.738 77.0609 240.763 77.1743 240.765 77.2892C240.765 77.9213 240.081 78.4985 239.26 79.1787H240.779V79.4054H238.877L238.905 79.1993Z" fill="white"/>
<path d="M242.126 77.9144C241.952 77.8939 241.789 77.815 241.665 77.6903C241.541 77.5656 241.463 77.4025 241.442 77.2273C241.442 76.712 241.914 76.4784 242.372 76.4784C242.831 76.4784 243.309 76.712 243.309 77.2273C243.288 77.402 243.209 77.5645 243.085 77.6889C242.961 77.8134 242.799 77.8928 242.626 77.9144C242.806 77.9516 242.969 78.0457 243.092 78.1829C243.215 78.3201 243.291 78.4933 243.309 78.677C243.309 79.1511 242.885 79.4534 242.331 79.4534C241.777 79.4534 241.353 79.1511 241.353 78.677C241.376 78.4803 241.465 78.2973 241.606 78.1585C241.746 78.0197 241.93 77.9335 242.126 77.9144ZM242.386 78.0243C242.208 78.0243 241.654 78.2236 241.654 78.6633C241.654 79.103 242.003 79.2336 242.386 79.2336C242.769 79.2336 243.118 79.0137 243.118 78.6633C243.118 78.3129 242.584 78.0449 242.413 78.0243H242.386ZM242.386 76.6914C242.01 76.6914 241.702 76.8975 241.702 77.2411C241.702 77.5846 242.215 77.7701 242.386 77.8045C242.557 77.8388 243.07 77.6396 243.07 77.2411C243.07 76.8425 242.81 76.6914 242.413 76.6914H242.386Z" fill="white"/>
<path d="M244.465 76.4647C244.653 76.4647 244.833 76.5396 244.966 76.673C245.099 76.8064 245.173 76.9872 245.173 77.1758C245.173 77.3644 245.099 77.5453 244.966 77.6787C244.833 77.812 244.653 77.887 244.465 77.887C244.277 77.887 244.097 77.812 243.965 77.6787C243.832 77.5453 243.757 77.3644 243.757 77.1758C243.757 76.9872 243.832 76.8064 243.965 76.673C244.097 76.5396 244.277 76.4647 244.465 76.4647ZM244.465 76.6365C244.355 76.6225 244.243 76.6427 244.144 76.6943C244.045 76.7459 243.965 76.8265 243.913 76.9253C243.861 77.0242 243.84 77.1366 243.854 77.2475C243.867 77.3585 243.914 77.4627 243.987 77.5464C244.061 77.63 244.158 77.6891 244.267 77.7157C244.375 77.7423 244.488 77.7352 244.592 77.6953C244.696 77.6554 244.785 77.5847 244.848 77.4925C244.911 77.4003 244.945 77.291 244.944 77.1793C244.951 77.1115 244.943 77.0431 244.922 76.9784C244.901 76.9136 244.867 76.8539 244.822 76.803C244.778 76.752 244.723 76.7109 244.661 76.6823C244.6 76.6537 244.533 76.6381 244.465 76.6365ZM246.038 76.5128H246.23L244.39 79.4054H244.178L246.038 76.5128ZM245.936 78.0312C246.071 78.0312 246.203 78.0715 246.316 78.147C246.428 78.2225 246.516 78.3298 246.568 78.4554C246.619 78.5809 246.633 78.7191 246.607 78.8524C246.58 78.9856 246.515 79.1081 246.419 79.2041C246.324 79.3002 246.202 79.3657 246.069 79.3922C245.937 79.4187 245.799 79.4051 245.674 79.3531C245.549 79.3011 245.442 79.213 245.367 79.1C245.292 78.987 245.252 78.8542 245.252 78.7183C245.252 78.5361 245.324 78.3613 245.452 78.2325C245.58 78.1036 245.754 78.0312 245.936 78.0312ZM245.936 78.2099C245.869 78.2115 245.803 78.2269 245.742 78.2551C245.681 78.2834 245.626 78.3238 245.581 78.374C245.536 78.4242 245.502 78.4831 245.481 78.547C245.46 78.6109 245.451 78.6786 245.457 78.7458C245.445 78.8158 245.449 78.8875 245.467 78.9559C245.486 79.0244 245.519 79.0879 245.565 79.1422C245.61 79.1964 245.667 79.2399 245.731 79.2698C245.795 79.2997 245.865 79.3152 245.936 79.3152C246.006 79.3152 246.076 79.2997 246.14 79.2698C246.204 79.2399 246.261 79.1964 246.307 79.1422C246.352 79.0879 246.386 79.0244 246.404 78.9559C246.423 78.8875 246.426 78.8158 246.415 78.7458C246.42 78.6786 246.412 78.6109 246.391 78.547C246.369 78.4831 246.335 78.4242 246.29 78.374C246.245 78.3238 246.191 78.2834 246.13 78.2551C246.069 78.2269 246.003 78.2115 245.936 78.2099Z" fill="white"/>
<path d="M192.921 127.459L192.723 127.24L207.107 113.677L215.068 121.667L223.057 116.521L229.958 121.667L259.362 96.0669L259.56 96.2936L229.972 122.045L229.876 121.977L223.05 116.878L215.027 122.045L214.945 121.963L207.1 114.089L192.921 127.459Z" fill="#FF4442"/>
<path d="M259.526 97.1388L259.267 96.3487L258.528 95.9845L260.388 95.373L259.526 97.1388Z" fill="#FF4442"/>
<path d="M207.928 114.007C207.928 114.142 207.887 114.275 207.812 114.388C207.737 114.501 207.63 114.589 207.505 114.641C207.38 114.693 207.243 114.707 207.11 114.68C206.977 114.654 206.856 114.588 206.76 114.492C206.664 114.396 206.599 114.274 206.573 114.141C206.546 114.007 206.56 113.869 206.612 113.744C206.663 113.618 206.751 113.511 206.864 113.435C206.976 113.36 207.108 113.319 207.244 113.319C207.425 113.319 207.599 113.392 207.727 113.521C207.855 113.65 207.928 113.824 207.928 114.007Z" fill="#FF4442"/>
<path d="M193.516 127.205C193.516 127.341 193.476 127.474 193.401 127.587C193.326 127.7 193.219 127.788 193.094 127.84C192.969 127.892 192.831 127.906 192.699 127.879C192.566 127.853 192.444 127.787 192.349 127.691C192.253 127.595 192.188 127.473 192.161 127.339C192.135 127.206 192.148 127.068 192.2 126.942C192.252 126.817 192.34 126.709 192.452 126.634C192.565 126.558 192.697 126.518 192.832 126.518C193.014 126.518 193.188 126.591 193.316 126.719C193.444 126.848 193.516 127.023 193.516 127.205Z" fill="#FF4442"/>
<path d="M193.516 120.17C193.516 120.306 193.476 120.438 193.401 120.551C193.326 120.664 193.219 120.752 193.094 120.804C192.969 120.856 192.831 120.87 192.699 120.844C192.566 120.817 192.444 120.752 192.349 120.655C192.253 120.559 192.188 120.437 192.161 120.304C192.135 120.17 192.148 120.032 192.2 119.907C192.252 119.781 192.34 119.674 192.452 119.598C192.565 119.523 192.697 119.483 192.832 119.483C193.014 119.483 193.188 119.555 193.316 119.684C193.444 119.813 193.516 119.987 193.516 120.17Z" fill="#2CBA8F"/>
<path d="M207.928 120.17C207.928 120.306 207.887 120.438 207.812 120.551C207.737 120.664 207.63 120.752 207.505 120.804C207.38 120.856 207.243 120.87 207.11 120.844C206.977 120.817 206.856 120.752 206.76 120.655C206.664 120.559 206.599 120.437 206.573 120.304C206.546 120.17 206.56 120.032 206.612 119.907C206.663 119.781 206.751 119.674 206.864 119.598C206.976 119.523 207.108 119.483 207.244 119.483C207.425 119.483 207.599 119.555 207.727 119.684C207.855 119.813 207.928 119.987 207.928 120.17Z" fill="#2CBA8F"/>
<path d="M215.752 118.246C215.752 118.382 215.712 118.514 215.637 118.627C215.562 118.74 215.455 118.829 215.33 118.881C215.205 118.933 215.067 118.946 214.935 118.92C214.802 118.893 214.68 118.828 214.585 118.732C214.489 118.636 214.424 118.513 214.397 118.38C214.371 118.247 214.385 118.108 214.436 117.983C214.488 117.857 214.576 117.75 214.688 117.674C214.801 117.599 214.933 117.559 215.068 117.559C215.25 117.559 215.424 117.631 215.552 117.76C215.68 117.889 215.752 118.064 215.752 118.246Z" fill="#2CBA8F"/>
<path d="M223.761 113.306C223.761 113.442 223.721 113.574 223.646 113.687C223.571 113.8 223.464 113.888 223.339 113.94C223.214 113.993 223.077 114.006 222.944 113.98C222.811 113.953 222.69 113.888 222.594 113.792C222.498 113.695 222.433 113.573 222.407 113.44C222.38 113.306 222.394 113.168 222.446 113.043C222.497 112.917 222.585 112.81 222.698 112.734C222.81 112.659 222.942 112.619 223.078 112.619C223.259 112.619 223.433 112.691 223.561 112.82C223.689 112.949 223.761 113.124 223.761 113.306Z" fill="#2CBA8F"/>
<path d="M248.713 120.17C248.713 120.306 248.673 120.438 248.597 120.551C248.522 120.664 248.415 120.752 248.29 120.804C248.165 120.856 248.028 120.87 247.895 120.844C247.763 120.817 247.641 120.752 247.545 120.655C247.449 120.559 247.384 120.437 247.358 120.304C247.331 120.17 247.345 120.032 247.397 119.907C247.449 119.781 247.536 119.674 247.649 119.598C247.761 119.523 247.893 119.483 248.029 119.483C248.21 119.483 248.384 119.555 248.512 119.684C248.641 119.813 248.713 119.987 248.713 120.17Z" fill="#2CBA8F"/>
<path d="M240.539 113.306C240.539 113.442 240.499 113.574 240.424 113.687C240.349 113.8 240.242 113.888 240.117 113.94C239.992 113.993 239.855 114.006 239.722 113.98C239.589 113.953 239.467 113.888 239.372 113.792C239.276 113.695 239.211 113.573 239.185 113.44C239.158 113.306 239.172 113.168 239.223 113.043C239.275 112.917 239.363 112.81 239.475 112.734C239.588 112.659 239.72 112.619 239.855 112.619C240.037 112.619 240.211 112.691 240.339 112.82C240.467 112.949 240.539 113.124 240.539 113.306Z" fill="#2CBA8F"/>
<path d="M215.752 121.805C215.752 121.941 215.712 122.073 215.637 122.186C215.562 122.299 215.455 122.388 215.33 122.44C215.205 122.492 215.067 122.505 214.935 122.479C214.802 122.452 214.68 122.387 214.585 122.291C214.489 122.194 214.424 122.072 214.397 121.939C214.371 121.806 214.385 121.667 214.436 121.542C214.488 121.416 214.576 121.309 214.688 121.233C214.801 121.158 214.933 121.118 215.068 121.118C215.25 121.118 215.424 121.19 215.552 121.319C215.68 121.448 215.752 121.623 215.752 121.805Z" fill="#FF4442"/>
<path d="M223.761 116.652C223.761 116.788 223.721 116.921 223.646 117.034C223.571 117.147 223.464 117.235 223.339 117.287C223.214 117.339 223.077 117.352 222.944 117.326C222.811 117.299 222.69 117.234 222.594 117.138C222.498 117.042 222.433 116.919 222.407 116.786C222.38 116.653 222.394 116.514 222.446 116.389C222.497 116.263 222.585 116.156 222.698 116.081C222.81 116.005 222.942 115.965 223.078 115.965C223.259 115.965 223.433 116.037 223.561 116.166C223.689 116.295 223.761 116.47 223.761 116.652Z" fill="#FF4442"/>
<path d="M230.567 121.571C230.567 121.707 230.527 121.84 230.452 121.953C230.376 122.066 230.27 122.154 230.145 122.206C230.02 122.258 229.882 122.272 229.749 122.245C229.617 122.219 229.495 122.153 229.399 122.057C229.304 121.961 229.239 121.839 229.212 121.705C229.186 121.572 229.199 121.434 229.251 121.308C229.303 121.183 229.39 121.075 229.503 121C229.615 120.924 229.748 120.884 229.883 120.884C230.064 120.884 230.238 120.957 230.367 121.085C230.495 121.214 230.567 121.389 230.567 121.571Z" fill="#FF4442"/>
<path d="M265.224 129.754H189.761V91.7452H189.912V129.61H265.224V129.754Z" fill="#FEFEFC"/>
<path d="M257.707 122.403L247.926 120.334L239.732 113.457H223.105L215.089 118.438L207.237 120.362L193.174 120.369V120.073H207.195L214.993 118.156L223.016 113.155H239.841L248.083 120.08L257.768 122.107L257.707 122.403Z" fill="#2CBA8F"/>
<path d="M257.009 122.884L257.488 122.203L257.324 121.386L258.938 122.506L257.009 122.884Z" fill="#2CBA8F"/>
<path d="M82.2545 135.904C82.3834 136.095 82.5596 136.25 82.7658 136.352C82.9721 136.454 83.2013 136.501 83.4309 136.488C83.5667 136.49 83.7017 136.466 83.8278 136.415C83.9539 136.364 84.0686 136.289 84.165 136.192C84.2613 136.096 84.3374 135.982 84.3888 135.855C84.4401 135.729 84.4656 135.594 84.4637 135.457C84.468 135.319 84.4433 135.182 84.3912 135.054C84.3391 134.926 84.2608 134.811 84.1615 134.716C84.0621 134.621 83.9439 134.547 83.8145 134.501C83.685 134.455 83.5474 134.436 83.4104 134.447C83.2232 134.448 83.038 134.486 82.8654 134.559C82.6929 134.632 82.5364 134.739 82.405 134.873L82.1245 134.763V132.565L84.539 132.53V132.86H82.4871V134.495C82.7538 134.243 83.1055 134.1 83.472 134.097C83.6504 134.083 83.8297 134.107 83.9982 134.168C84.1666 134.229 84.3204 134.325 84.4495 134.449C84.5787 134.574 84.6802 134.724 84.7474 134.891C84.8147 135.057 84.8462 135.236 84.8399 135.416C84.8399 135.78 84.6958 136.13 84.4393 136.388C84.1827 136.645 83.8348 136.79 83.472 136.79C83.1965 136.812 82.92 136.761 82.6711 136.64C82.4222 136.519 82.2099 136.334 82.0562 136.103L82.2545 135.904Z" fill="white"/>
<path d="M87.049 132.434C88.1639 132.434 88.6016 133.574 88.6153 134.578C88.629 135.581 88.2186 136.749 87.1106 136.763C86.0025 136.776 85.5511 135.608 85.5374 134.619C85.5238 133.629 85.9273 132.448 87.049 132.434ZM87.049 132.764C86.1667 132.764 85.8931 133.746 85.9068 134.612C85.9205 135.478 86.2146 136.446 87.0969 136.433C87.9792 136.419 88.2391 135.443 88.2255 134.578C88.2118 133.712 87.9314 132.75 87.0559 132.764H87.049Z" fill="white"/>
<path d="M90.1339 132.393C90.406 132.393 90.6669 132.501 90.8593 132.695C91.0517 132.888 91.1598 133.15 91.1598 133.423C91.1598 133.697 91.0517 133.959 90.8593 134.152C90.6669 134.345 90.406 134.454 90.1339 134.454C89.8618 134.454 89.6008 134.345 89.4084 134.152C89.216 133.959 89.1079 133.697 89.1079 133.423C89.1079 133.15 89.216 132.888 89.4084 132.695C89.6008 132.501 89.8618 132.393 90.1339 132.393ZM90.1339 132.64C89.9753 132.619 89.8141 132.647 89.6718 132.721C89.5295 132.794 89.4129 132.909 89.3375 133.051C89.2622 133.193 89.2316 133.354 89.2499 133.514C89.2682 133.673 89.3345 133.824 89.44 133.944C89.5454 134.065 89.6851 134.151 89.8403 134.19C89.9954 134.229 90.1587 134.22 90.3084 134.163C90.4581 134.106 90.5871 134.005 90.6781 133.873C90.7691 133.741 90.8179 133.584 90.8178 133.423C90.8253 133.327 90.8134 133.229 90.7828 133.137C90.7523 133.045 90.7037 132.96 90.64 132.887C90.5763 132.814 90.4987 132.755 90.4118 132.712C90.3248 132.67 90.2304 132.645 90.1339 132.64ZM92.4047 132.427H92.6919L90.0791 136.653H89.7987L92.4047 132.427ZM92.2884 134.633C92.4924 134.622 92.695 134.672 92.8702 134.778C93.0455 134.883 93.1854 135.039 93.272 135.225C93.3586 135.411 93.3881 135.618 93.3565 135.821C93.3249 136.024 93.2338 136.212 93.0948 136.363C92.9559 136.513 92.7753 136.619 92.5764 136.665C92.3775 136.712 92.1692 136.698 91.9782 136.625C91.7873 136.552 91.6223 136.424 91.5045 136.256C91.3868 136.088 91.3215 135.889 91.3171 135.684C91.3116 135.552 91.3326 135.421 91.379 135.298C91.4253 135.175 91.4959 135.062 91.5867 134.967C91.6774 134.872 91.7864 134.797 91.907 134.745C92.0276 134.693 92.1573 134.667 92.2884 134.667V134.633ZM92.2884 134.88C92.0993 134.905 91.9259 134.998 91.8002 135.143C91.6746 135.287 91.6053 135.472 91.6053 135.663C91.6053 135.855 91.6746 136.04 91.8002 136.184C91.9259 136.328 92.0993 136.421 92.2884 136.446C92.4774 136.421 92.6509 136.328 92.7765 136.184C92.9022 136.04 92.9714 135.855 92.9714 135.663C92.9714 135.472 92.9022 135.287 92.7765 135.143C92.6509 134.998 92.4774 134.905 92.2884 134.88Z" fill="white"/>
<path d="M154.995 81.6041C155.131 81.7875 155.309 81.9351 155.513 82.0344C155.718 82.1337 155.944 82.1817 156.171 82.1743C156.821 82.1743 157.218 81.8239 157.211 81.2674C157.204 80.7109 156.705 80.4292 156.083 80.436H155.693V80.0925H156.076C156.63 80.0925 157.129 79.8452 157.122 79.2818C157.115 78.7184 156.65 78.4779 156.11 78.4848C155.896 78.4853 155.684 78.5351 155.492 78.6303C155.3 78.7256 155.132 78.8639 155.002 79.0344L154.776 78.8145C154.934 78.6 155.141 78.426 155.378 78.3066C155.616 78.1872 155.878 78.1258 156.144 78.1275C156.876 78.1275 157.512 78.5054 157.512 79.2131C157.519 79.4651 157.433 79.7108 157.27 79.9025C157.107 80.0942 156.879 80.2183 156.63 80.2505C156.889 80.2724 157.132 80.3895 157.311 80.5797C157.49 80.7698 157.593 81.0195 157.601 81.2812C157.601 81.9682 157.102 82.4904 156.233 82.5041C155.957 82.5182 155.681 82.4627 155.431 82.3428C155.182 82.2228 154.966 82.0421 154.803 81.8171L154.995 81.6041Z" fill="white"/>
<path d="M160.426 78.5053H158.121V78.1755H160.857V78.4229L159.133 82.3873H158.743L160.426 78.5053Z" fill="white"/>
<path d="M162.231 78.093C162.435 78.0807 162.639 78.1301 162.815 78.2347C162.991 78.3393 163.132 78.4944 163.219 78.68C163.307 78.8657 163.338 79.0735 163.307 79.2766C163.276 79.4798 163.186 79.6691 163.047 79.8202C162.908 79.9714 162.728 80.0774 162.529 80.1247C162.33 80.172 162.121 80.1585 161.93 80.0858C161.738 80.0132 161.573 79.8847 161.455 79.7169C161.337 79.5491 161.271 79.3497 161.267 79.1443C161.256 79.0105 161.274 78.876 161.317 78.7493C161.361 78.6225 161.43 78.5061 161.521 78.4075C161.611 78.3088 161.721 78.23 161.843 78.1759C161.966 78.1218 162.098 78.0936 162.231 78.093ZM162.231 78.3404C162.072 78.3194 161.911 78.3476 161.768 78.4214C161.626 78.4951 161.509 78.6108 161.434 78.7529C161.359 78.8951 161.329 79.0569 161.348 79.2167C161.366 79.3766 161.433 79.5269 161.54 79.6474C161.646 79.768 161.786 79.853 161.942 79.8913C162.097 79.9295 162.261 79.9191 162.411 79.8614C162.56 79.8037 162.689 79.7015 162.779 79.5684C162.869 79.4353 162.917 79.2777 162.915 79.1168C162.924 79.0194 162.912 78.9214 162.882 78.8285C162.852 78.7356 162.804 78.6497 162.74 78.576C162.676 78.5023 162.598 78.4422 162.511 78.3994C162.423 78.3565 162.328 78.3318 162.231 78.3266V78.3404ZM164.509 78.1274H164.796L162.183 82.3529H161.903L164.509 78.1274ZM164.386 80.326C164.658 80.326 164.919 80.4346 165.111 80.6279C165.304 80.8212 165.412 81.0833 165.412 81.3567C165.412 81.63 165.304 81.8921 165.111 82.0854C164.919 82.2787 164.658 82.3873 164.386 82.3873C164.114 82.3873 163.853 82.2787 163.66 82.0854C163.468 81.8921 163.36 81.63 163.36 81.3567C163.36 81.0833 163.468 80.8212 163.66 80.6279C163.853 80.4346 164.114 80.326 164.386 80.326ZM164.386 80.5802C164.227 80.5593 164.065 80.5875 163.923 80.6612C163.781 80.735 163.664 80.8506 163.589 80.9928C163.513 81.1349 163.483 81.2968 163.502 81.4566C163.521 81.6165 163.588 81.7667 163.694 81.8873C163.8 82.0078 163.941 82.0929 164.096 82.1312C164.252 82.1694 164.416 82.159 164.565 82.1013C164.715 82.0436 164.843 81.9413 164.933 81.8083C165.024 81.6752 165.071 81.5176 165.07 81.3567C165.076 81.261 165.064 81.1649 165.033 81.0741C165.003 80.9832 164.955 80.8993 164.892 80.8271C164.829 80.755 164.752 80.6961 164.667 80.6537C164.581 80.6113 164.488 80.5864 164.393 80.5802H164.386Z" fill="white"/>
<path d="M94.2651 59.2328L93.5812 59.9611L93.3555 59.7344L94.2651 58.745H94.5866L94.6482 62.9293H94.2925L94.2651 59.2328Z" fill="white"/>
<path d="M95.6261 62.0842C95.7601 62.269 95.9378 62.4173 96.1432 62.5157C96.3487 62.614 96.5753 62.6594 96.8025 62.6476C97.4455 62.6476 97.849 62.2972 97.8353 61.7475C97.8217 61.1979 97.336 60.9024 96.7068 60.9093H96.3238V60.5726H96.7136C97.2608 60.5726 97.7669 60.3184 97.7533 59.7619C97.7396 59.2053 97.2813 58.958 96.7478 58.9649C96.5325 58.9648 96.3201 59.0144 96.1268 59.1096C95.9336 59.2049 95.7646 59.3434 95.6329 59.5145L95.4072 59.2878C95.5669 59.0748 95.7735 58.902 96.0108 58.7828C96.2482 58.6636 96.5098 58.6012 96.7752 58.6007C97.5002 58.6007 98.1431 58.9786 98.1431 59.6863C98.1419 59.9306 98.0524 60.1662 97.8915 60.3494C97.7305 60.5326 97.5089 60.651 97.2676 60.6825C97.5268 60.7058 97.7685 60.8235 97.9474 61.0132C98.1262 61.203 98.2299 61.452 98.2389 61.7132C98.2389 62.4002 97.7327 62.9155 96.8709 62.9293C96.5945 62.944 96.3187 62.8888 96.069 62.7688C95.8193 62.6487 95.6035 62.4677 95.4414 62.2422L95.6261 62.0842Z" fill="white"/>
<path d="M99.7232 58.6076C99.9274 58.5953 100.131 58.6446 100.307 58.7492C100.483 58.8538 100.624 59.0089 100.711 59.1946C100.799 59.3802 100.83 59.588 100.799 59.7912C100.768 59.9943 100.678 60.1836 100.539 60.3348C100.4 60.4859 100.22 60.5919 100.021 60.6392C99.8217 60.6866 99.6131 60.673 99.4217 60.6004C99.2304 60.5277 99.065 60.3992 98.9469 60.2314C98.8287 60.0637 98.7632 59.8642 98.7588 59.6588C98.7484 59.525 98.7657 59.3906 98.8094 59.2638C98.8531 59.137 98.9224 59.0207 99.0129 58.922C99.1034 58.8234 99.2132 58.7445 99.3354 58.6904C99.4576 58.6363 99.5896 58.6081 99.7232 58.6076ZM99.7232 58.8549C99.5646 58.8339 99.4034 58.8621 99.2611 58.9355C99.1189 59.0089 99.0022 59.1242 98.9268 59.2659C98.8515 59.4076 98.8209 59.5691 98.8392 59.7287C98.8575 59.8883 98.9238 60.0385 99.0293 60.1593C99.1348 60.2801 99.2744 60.3657 99.4296 60.4048C99.5847 60.4438 99.7481 60.4344 99.8978 60.3777C100.047 60.3211 100.176 60.22 100.267 60.0879C100.358 59.9557 100.407 59.7989 100.407 59.6382C100.414 59.5416 100.401 59.4447 100.37 59.353C100.339 59.2613 100.291 59.1766 100.227 59.1038C100.164 59.031 100.086 58.9716 99.9999 58.9289C99.9134 58.8861 99.8194 58.861 99.7232 58.8549ZM101.994 58.6419H102.281L99.6685 62.8674H99.388L101.994 58.6419ZM101.912 60.8474C102.116 60.8365 102.319 60.8871 102.494 60.9926C102.669 61.098 102.809 61.2537 102.896 61.4396C102.982 61.6254 103.012 61.833 102.98 62.0358C102.948 62.2386 102.857 62.4272 102.718 62.5777C102.579 62.7281 102.399 62.8334 102.2 62.8801C102.001 62.9268 101.793 62.9128 101.602 62.8399C101.411 62.767 101.246 62.6384 101.128 62.4707C101.01 62.303 100.945 62.1038 100.941 61.8986C100.93 61.7643 100.948 61.6293 100.992 61.502C101.036 61.3748 101.106 61.2581 101.197 61.1594C101.288 61.0606 101.399 60.9819 101.522 60.9282C101.645 60.8745 101.778 60.847 101.912 60.8474ZM101.912 61.1016C101.719 61.1199 101.539 61.2099 101.408 61.3542C101.278 61.4984 101.205 61.6864 101.205 61.8815C101.205 62.0765 101.278 62.2645 101.408 62.4088C101.539 62.553 101.719 62.643 101.912 62.6613C102.105 62.643 102.285 62.553 102.416 62.4088C102.546 62.2645 102.619 62.0765 102.619 61.8815C102.619 61.6864 102.546 61.4984 102.416 61.3542C102.285 61.2099 102.105 61.1199 101.912 61.1016Z" fill="white"/>
<path d="M206.498 92.4462H197.374C197.193 92.4462 197.019 92.3738 196.89 92.2449C196.762 92.1161 196.69 91.9413 196.69 91.7591C196.69 91.5769 196.762 91.4021 196.89 91.2733C197.019 91.1444 197.193 91.072 197.374 91.072H206.498C206.679 91.072 206.853 91.1444 206.982 91.2733C207.11 91.4021 207.182 91.5769 207.182 91.7591C207.182 91.9413 207.11 92.1161 206.982 92.2449C206.853 92.3738 206.679 92.4462 206.498 92.4462Z" fill="#CDF7FC"/>
<path d="M206.498 145.014H197.374C197.295 144.998 197.224 144.955 197.173 144.893C197.122 144.83 197.094 144.752 197.094 144.671C197.094 144.59 197.122 144.511 197.173 144.449C197.224 144.386 197.295 144.343 197.374 144.327H206.498C206.549 144.317 206.601 144.318 206.651 144.331C206.701 144.343 206.748 144.367 206.788 144.4C206.828 144.432 206.86 144.474 206.882 144.521C206.904 144.568 206.916 144.619 206.916 144.671C206.916 144.723 206.904 144.774 206.882 144.821C206.86 144.868 206.828 144.909 206.788 144.942C206.748 144.975 206.701 144.998 206.651 145.011C206.601 145.023 206.549 145.024 206.498 145.014Z" fill="#CDF7FC"/>
<path d="M207.927 147.282H197.374C197.328 147.283 197.283 147.274 197.241 147.257C197.198 147.241 197.16 147.215 197.127 147.183C197.095 147.151 197.069 147.113 197.052 147.071C197.034 147.029 197.025 146.984 197.025 146.938C197.025 146.845 197.062 146.756 197.127 146.69C197.192 146.625 197.281 146.588 197.374 146.588H207.927C208.02 146.588 208.109 146.625 208.174 146.69C208.239 146.756 208.276 146.845 208.276 146.938C208.276 146.984 208.267 147.029 208.25 147.071C208.232 147.113 208.206 147.151 208.174 147.183C208.141 147.215 208.103 147.241 208.06 147.257C208.018 147.274 207.973 147.283 207.927 147.282Z" fill="#CDF7FC"/>
<path d="M236.552 145.014H227.421C227.342 144.998 227.271 144.955 227.22 144.893C227.169 144.83 227.141 144.752 227.141 144.671C227.141 144.59 227.169 144.511 227.22 144.449C227.271 144.386 227.342 144.343 227.421 144.327H236.552C236.631 144.343 236.702 144.386 236.753 144.449C236.804 144.511 236.832 144.59 236.832 144.671C236.832 144.752 236.804 144.83 236.753 144.893C236.702 144.955 236.631 144.998 236.552 145.014Z" fill="#CDF7FC"/>
<path d="M237.947 147.282H227.421C227.33 147.282 227.243 147.245 227.179 147.181C227.115 147.117 227.079 147.029 227.079 146.938C227.078 146.892 227.086 146.847 227.103 146.804C227.12 146.762 227.145 146.723 227.176 146.691C227.208 146.658 227.246 146.632 227.288 146.614C227.33 146.597 227.375 146.588 227.421 146.588H237.947C238.04 146.588 238.128 146.625 238.194 146.69C238.259 146.756 238.296 146.845 238.296 146.938C238.296 146.984 238.287 147.029 238.269 147.071C238.252 147.113 238.226 147.151 238.193 147.183C238.161 147.215 238.122 147.241 238.08 147.257C238.038 147.274 237.993 147.283 237.947 147.282Z" fill="#CDF7FC"/>
<path d="M265.47 145.014H256.346C256.295 145.024 256.243 145.023 256.193 145.011C256.143 144.998 256.096 144.975 256.056 144.942C256.016 144.909 255.984 144.868 255.962 144.821C255.94 144.774 255.928 144.723 255.928 144.671C255.928 144.619 255.94 144.568 255.962 144.521C255.984 144.474 256.016 144.432 256.056 144.4C256.096 144.367 256.143 144.343 256.193 144.331C256.243 144.318 256.295 144.317 256.346 144.327H265.47C265.549 144.343 265.62 144.386 265.671 144.449C265.722 144.511 265.75 144.59 265.75 144.671C265.75 144.752 265.722 144.83 265.671 144.893C265.62 144.955 265.549 144.998 265.47 145.014Z" fill="#CDF7FC"/>
<path d="M266.865 147.282H256.346C256.3 147.283 256.255 147.274 256.213 147.257C256.171 147.241 256.132 147.215 256.1 147.183C256.067 147.151 256.041 147.113 256.024 147.071C256.006 147.029 255.997 146.984 255.997 146.938C255.997 146.845 256.034 146.756 256.099 146.69C256.165 146.625 256.253 146.588 256.346 146.588H266.865C266.958 146.588 267.047 146.625 267.112 146.69C267.177 146.756 267.214 146.845 267.214 146.938C267.214 146.984 267.205 147.029 267.188 147.071C267.17 147.113 267.144 147.151 267.112 147.183C267.079 147.215 267.041 147.241 266.998 147.257C266.956 147.274 266.911 147.283 266.865 147.282Z" fill="#CDF7FC"/>
<path d="M223.064 92.4462H210.493C210.311 92.4462 210.137 92.3738 210.009 92.2449C209.881 92.1161 209.809 91.9413 209.809 91.7591C209.809 91.5769 209.881 91.4021 210.009 91.2733C210.137 91.1444 210.311 91.072 210.493 91.072H223.064C223.245 91.072 223.419 91.1444 223.548 91.2733C223.676 91.4021 223.748 91.5769 223.748 91.7591C223.748 91.9413 223.676 92.1161 223.548 92.2449C223.419 92.3738 223.245 92.4462 223.064 92.4462Z" fill="#CDF7FC"/>
<path d="M215.752 96.067H197.374C197.193 96.067 197.019 95.9946 196.89 95.8658C196.762 95.7369 196.69 95.5622 196.69 95.3799C196.69 95.1977 196.762 95.023 196.89 94.8941C197.019 94.7653 197.193 94.6929 197.374 94.6929H215.752C215.934 94.6929 216.108 94.7653 216.236 94.8941C216.364 95.023 216.436 95.1977 216.436 95.3799C216.436 95.5622 216.364 95.7369 216.236 95.8658C216.108 95.9946 215.934 96.067 215.752 96.067Z" fill="#CDF7FC"/>
<path d="M193.851 145.358C193.853 145.793 193.725 146.219 193.486 146.581C193.246 146.944 192.905 147.226 192.505 147.394C192.105 147.561 191.665 147.606 191.24 147.522C190.815 147.438 190.424 147.229 190.117 146.922C189.811 146.615 189.601 146.223 189.516 145.796C189.431 145.369 189.474 144.927 189.64 144.525C189.805 144.123 190.086 143.779 190.446 143.537C190.806 143.295 191.229 143.166 191.663 143.166C192.242 143.166 192.798 143.397 193.208 143.808C193.618 144.218 193.849 144.776 193.851 145.358Z" fill="#2CBA8F"/>
<path d="M223.761 145.358C223.763 145.793 223.636 146.219 223.396 146.581C223.156 146.944 222.815 147.226 222.415 147.394C222.015 147.561 221.575 147.606 221.15 147.522C220.725 147.438 220.334 147.229 220.028 146.922C219.721 146.615 219.512 146.223 219.427 145.796C219.342 145.369 219.385 144.927 219.55 144.525C219.715 144.123 219.996 143.779 220.356 143.537C220.716 143.295 221.14 143.166 221.573 143.166C222.152 143.166 222.708 143.397 223.118 143.808C223.528 144.218 223.76 144.776 223.761 145.358Z" fill="#FF4442"/>
<path d="M253.07 145.358C253.071 145.793 252.944 146.219 252.704 146.581C252.464 146.944 252.123 147.226 251.723 147.394C251.323 147.561 250.883 147.606 250.458 147.522C250.033 147.438 249.642 147.229 249.336 146.922C249.029 146.615 248.82 146.223 248.735 145.796C248.65 145.369 248.693 144.927 248.858 144.525C249.024 144.123 249.304 143.779 249.664 143.537C250.024 143.295 250.448 143.166 250.881 143.166C251.46 143.166 252.016 143.397 252.426 143.808C252.836 144.218 253.068 144.776 253.07 145.358Z" fill="#FFCF26"/>
<defs>
<linearGradient id="paint0_linear_0_2458" x1="88.5881" y1="199.719" x2="256.949" y2="-0.0187672" gradientUnits="userSpaceOnUse">
<stop stop-color="#A068F8"/>
<stop offset="1" stop-color="#1FC6A6"/>
</linearGradient>
<linearGradient id="paint1_linear_0_2458" x1="88.5813" y1="199.699" x2="256.922" y2="-0.011917" gradientUnits="userSpaceOnUse">
<stop stop-color="#31938C"/>
<stop offset="1" stop-color="#1FC69E"/>
</linearGradient>
</defs>
</svg>
